<svg xmlns="http://www.w3.org/2000/svg" viewBox="0 0 255.44 299.68"><defs><style>.cls-1{fill:#f33;}.cls-2{fill:#ff2c2c;}</style></defs><title>Asset 3</title><g id="Layer_2" data-name="Layer 2"><g id="Layer_1-2" data-name="Layer 1"><path class="cls-1" d="M209.57,182.44a5.8,5.8,0,0,0,1.29,3.59l0,.05a5.16,5.16,0,0,0,5.1,1.64,47.43,47.43,0,0,0,5.87-1.69,50.47,50.47,0,0,0,10-5c2.87-1.84,5.28-3.92,10-8,2.92-2.53,5.32-4.71,7-6.29a1.72,1.72,0,0,1,.31-.24,4.68,4.68,0,0,1,3.66-.47,4.4,4.4,0,0,1,2.11,1.42,2.17,2.17,0,0,1,0,2.71l-3,3.8-.12.13q-1.83,2-3.94,3.94a80.53,80.53,0,0,1-15,11,55.68,55.68,0,0,1-18.09,7.39c-.24.05-.47.08-.7.11a5.27,5.27,0,0,0-3.21,1.5,5.74,5.74,0,0,0-1.29,5.2Z"/><path class="cls-1" d="M104.07,52.53,87.84,69a36.27,36.27,0,0,0-3.77,6.54,37.4,37.4,0,0,0-3.16,13.1A43.09,43.09,0,0,0,84,107.33a24.75,24.75,0,0,0,4,5.2A24.43,24.43,0,0,0,92.49,116a47.38,47.38,0,0,0,15.5,3.79,4.38,4.38,0,0,0,3.08-.24,4.31,4.31,0,0,0,2-2l-.63,12.39c-1.35-.18-2.81-.32-4.37-.39-1.8-.09-3.47-.07-5,0a38.53,38.53,0,0,1-11-1,39.15,39.15,0,0,1-17-9,35.6,35.6,0,0,1-8.94-25.84,36.47,36.47,0,0,1,2.91-14.13,36.08,36.08,0,0,1,5.83-9.37A53.5,53.5,0,0,1,87.54,56.77l13.53-8.24a2.81,2.81,0,0,1,4,1A2.71,2.71,0,0,1,104.07,52.53Z"/><path class="cls-1" d="M130.07,115s0,0,0,0c2.82-1.27,9.68-5.75,13-8a61.59,61.59,0,0,0,12.58-11.38A62.53,62.53,0,0,0,168,66.81a40.44,40.44,0,0,0-4.74-27.9A34.68,34.68,0,0,0,154.07,29a35.41,35.41,0,0,0-19.24-6.52,89.21,89.21,0,0,0-35.15,5.13h0A137.14,137.14,0,0,0,85.07,36,135.15,135.15,0,0,0,67.56,49.78c-2.47,2.52-5,5.26-7.49,8.25a148.75,148.75,0,0,0-13,18A96.54,96.54,0,0,0,31.2,114.71a78.31,78.31,0,0,0,4.56,48.42c3.6,7.56,8.23,10,10.31,10.9s4.55,1.3,9,2c3.73.59,6.84.86,9,1a62.24,62.24,0,0,0,30-7h0l16-9.46s0,0,0,0l1,18.44a3.08,3.08,0,0,0-2-3,3.2,3.2,0,0,0-2.89.58,40.15,40.15,0,0,1-4.11,4.42,41.36,41.36,0,0,1-5,4A88.45,88.45,0,0,1,62,202h0a61.12,61.12,0,0,1-39.17-8.21h0A53.9,53.9,0,0,1,1.57,159.48,83.55,83.55,0,0,1,2.06,125h0a95.55,95.55,0,0,1,9.78-30.72A175.61,175.61,0,0,1,21.07,77q2.68-4.41,5.41-8.33A116.76,116.76,0,0,1,49.85,41.39c4.62-4,9.69-8.19,15.22-12.36,4.74-3.57,9.37-6.82,13.83-9.77A158.46,158.46,0,0,1,99.07,9c5.12-2.15,10-3.89,14.57-5.29A107,107,0,0,1,139.07,0a105.14,105.14,0,0,1,13.82.58,33.5,33.5,0,0,1,21.38,10.2,40.73,40.73,0,0,1,12,21h0A70.26,70.26,0,0,1,187.07,43a77.9,77.9,0,0,1-1,11,80.53,80.53,0,0,1-2,9,50.32,50.32,0,0,1-13,25c-2.63,2.89-5.62,5.92-9,9a133.68,133.68,0,0,1-11,9h0l-16,10h0l-5,5s0,0,0,0Z"/><path class="cls-2" d="M194.57,277h0q-.06-5.11-.1-10.25V177.09a1.9,1.9,0,0,1,.09-.58,5.71,5.71,0,0,0-2.21-6.47,1.86,1.86,0,0,0-.91-.33,7.44,7.44,0,0,0-2.87.32,7.11,7.11,0,0,0-1.81.87l-.36.31L166,193.82a48.36,48.36,0,0,1-23.68,13.55,27.14,27.14,0,0,1-13.72.66,26.69,26.69,0,0,1-5.5-1.8,21.42,21.42,0,0,1-10.46-10.11l0-.09a25.61,25.61,0,0,1-2.5-11.5V68.22a2,2,0,0,1,.42-1.23,25,25,0,0,1,4.08-4,25.73,25.73,0,0,1,12-5,3.16,3.16,0,0,1,2,0,3.23,3.23,0,0,1,1.74,1.46,2,2,0,0,1,.27,1L132.77,162q.36,14.25.71,28.5a7,7,0,0,0,5.09,6.52h0a11,11,0,0,0,6.54-.28l.24-.07a32.16,32.16,0,0,0,9.22-3.65,32.81,32.81,0,0,0,6.2-4.75l.14-.16L185,159.18l.37-.49q5-7.23,10-14.44a2.12,2.12,0,0,1,.34-.39,21,21,0,0,1,16.35-4.74,2,2,0,0,1,.91.35l2.73,2a2,2,0,0,1,.81,1.6q-.13,53.22-.28,106.45a93,93,0,0,1-.71,17.54,91.9,91.9,0,0,1-1.87,9.72,14.38,14.38,0,0,1-2.27,4.95A38.17,38.17,0,0,1,189,296.88a62.23,62.23,0,0,1-22.85,2.65,30.25,30.25,0,0,1-14.62-4.5,29.63,29.63,0,0,1-6.77-5.83,1.92,1.92,0,0,0-.71-.52,4.2,4.2,0,0,1-2.52-2.65,3.74,3.74,0,0,1,2.09-4.48L158.57,275a3.43,3.43,0,0,1,2.82-.1,2.2,2.2,0,0,1,1.05,2.09l-.82,6.57a2,2,0,0,0,.1.9,11.76,11.76,0,0,0,2.85,4.54,12.07,12.07,0,0,0,6.56,3.29,29,29,0,0,0,9.44.71,28.13,28.13,0,0,0,8-2l.05,0a22.65,22.65,0,0,0,6-14Z"/><circle class="cls-1" cx="204.07" cy="109.53" r="14"/></g></g></svg>