<svg xmlns="http://www.w3.org/2000/svg" xmlns:xlink="http://www.w3.org/1999/xlink" viewBox="0 0 96.33 107.84"><defs><style>.cls-1{fill:url(#linear-gradient);}</style><linearGradient id="linear-gradient" y1="53.92" x2="91.7" y2="53.92" gradientUnits="userSpaceOnUse"><stop offset="0" stop-color="#fc83ff"/><stop offset="0.01" stop-color="#fc81f9"/><stop offset="0.09" stop-color="#fd6ec6"/><stop offset="0.18" stop-color="#fe5e9b"/><stop offset="0.26" stop-color="#fe5078"/><stop offset="0.35" stop-color="#fe465c"/><stop offset="0.43" stop-color="#ff3f49"/><stop offset="0.52" stop-color="#ff3a3d"/><stop offset="0.61" stop-color="#ff3939"/></linearGradient></defs><title>Asset 1</title><g id="Layer_2" data-name="Layer 2"><g id="Layer_1-2" data-name="Layer 1"><path class="cls-1" d="M40.68,65.66c-.07-1-1.63-1.45-2.4-.63q-8.74,9.21-19.16,9.21a17.7,17.7,0,0,1-13.81-5.9Q0,62.43,0,53.16,0,40.59,7.74,28.07A63,63,0,0,1,27.81,7.75Q40.08,0,51.85,0q7.6,0,12.08,4.34t4.54,11.54q0,16.62-19.17,26.55a1.11,1.11,0,0,0-.65,1V65a13.15,13.15,0,0,0,.45,4.28c.34.72,1.22,1.09,2.62,1.09q4.43,0,10.29-6.2a1.52,1.52,0,0,1,1.9-.17h0a1,1,0,0,1,.24,1.56,32,32,0,0,1-7.25,6.65,14.39,14.39,0,0,1-7.54,2.17q-4.35,0-6.59-2C41.61,71.36,40.92,69.11,40.68,65.66Zm-4-4.29c1.41-1.91,3.6-2.19,3.6-2.72V48.05a.86.86,0,0,0-1-.79q-1.41.12-2.49.12-6.24,0-10-3.23a11.1,11.1,0,0,1-3.66-8.68,17.25,17.25,0,0,1,3.6-10.22,22.81,22.81,0,0,1,9.32-7.37,1,1,0,0,1,1.15.27h0a.73.73,0,0,1-.16,1.05q-8.51,6.54-8.51,14.31c0,3.17.66,5.89,2.58,7.8s4.91,2.63,8.23,2.63a.85.85,0,0,0,.9-.8V23a.77.77,0,0,1,.47-.69l5.76-2.75a.91.91,0,0,1,1.33.7l-.09,19.4c0,.61.84,1.75,1.45,1.44A22.39,22.39,0,0,0,58,33.56a20.51,20.51,0,0,0,3.54-11.64q0-6.74-4.44-10.64c-3-2.62-6.26-3-11.19-3-9,0-17.18,5.19-24.58,13.55-6.15,9.76-9.22,11.93-10.45,23.86-.65,6.32.47,11.83,3.07,15.72s8.79,3.25,12.91,3.25A14.71,14.71,0,0,0,33,63M77.92,43.2h0a4.81,4.81,0,0,1-7.77,0h0a4.82,4.82,0,0,1,0-5.72h0a4.81,4.81,0,0,1,7.68,0h0A4.82,4.82,0,0,1,77.92,43.2ZM96.09,65.44Q87.78,74.3,80.51,75c-.76.06-1.32.53-1.32,1.06v15.7a33.37,33.37,0,0,1-.86,7.71q-.87,3.72-5.69,6a20.63,20.63,0,0,1-9.32,2.38q-8.43,0-11.19-5.16l.43-1.19a39.12,39.12,0,0,1,5.64-2.64,1.15,1.15,0,0,1,1.21.24h0a.44.44,0,0,1,.08.49,3.53,3.53,0,0,0-.36,1.41,3.91,3.91,0,0,0,1.58,3.23,7.11,7.11,0,0,0,4.51,1.3c2.73,0,4.42-1,5-3s1-6.11,1-12.4V61.36c0-1.11-2.14-1.49-2.93-.53q-1.74,2.09-4.09,4.46a2.05,2.05,0,0,1-2.37.19h0a.85.85,0,0,1-.27-1.36,69.12,69.12,0,0,0,9.29-12.44,1.36,1.36,0,0,1,.76-.58l5.32-1.79c1-.36,2.26.16,2.26,1V70.75c0,.67.9,1.19,1.87,1.06A13.49,13.49,0,0,0,86,70.1a40.75,40.75,0,0,0,7.37-5.93A2.1,2.1,0,0,1,95.67,64l.1.06C96.37,64.4,96.51,65,96.09,65.44Z"/></g></g></svg>