<svg xmlns="http://www.w3.org/2000/svg" xmlns:xlink="http://www.w3.org/1999/xlink" viewBox="0 0 808.67 447.97"><defs><style>.cls-1{fill:#262626;stroke:#4d4d4d;stroke-miterlimit:10;opacity:0.8;}.cls-2{fill:#80deea;}.cls-3{fill:#ff8f00;}.cls-4{fill:#ffa000;}.cls-5{fill:#ff6f00;}.cls-6{fill:#ffc400;}.cls-7{fill:#21a366;}.cls-8{fill:url(#linear-gradient);}.cls-9{fill:#5d4037;}.cls-10{fill:#4caf50;}.cls-11{fill:#dcedc8;}.cls-12{fill:#81c784;}.cls-13{fill:url(#linear-gradient-2);}.cls-14{fill:url(#linear-gradient-3);}.cls-15{fill:url(#linear-gradient-4);}.cls-16{fill:url(#linear-gradient-5);}.cls-17{fill:url(#linear-gradient-6);}</style><linearGradient id="linear-gradient" x1="819.92" y1="-1454.89" x2="822.38" y2="-1473.05" gradientTransform="matrix(1.94, -0.75, -0.75, -1.94, -1966.33, -2179.02)" gradientUnits="userSpaceOnUse"><stop offset="0" stop-color="#00c1e0"/><stop offset="1" stop-color="#009bb8"/></linearGradient><linearGradient id="linear-gradient-2" x1="485.25" y1="-1538.18" x2="489.45" y2="-1549.74" gradientTransform="matrix(2.08, 0.12, 0.12, -2.08, -791.24, -3059.07)" gradientUnits="userSpaceOnUse"><stop offset="0" stop-color="#f44f5a"/><stop offset="0.44" stop-color="#ee3d4a"/><stop offset="1" stop-color="#e52030"/></linearGradient><linearGradient id="linear-gradient-3" x1="484.81" y1="-1546.5" x2="488.98" y2="-1557.97" gradientTransform="matrix(2.08, 0.12, 0.12, -2.08, -791.24, -3059.07)" gradientUnits="userSpaceOnUse"><stop offset="0" stop-color="#ae4cd5"/><stop offset="1" stop-color="#9331bf"/></linearGradient><linearGradient id="linear-gradient-4" x1="484.3" y1="-1553.69" x2="488.65" y2="-1565.65" gradientTransform="matrix(2.08, 0.12, 0.12, -2.08, -791.24, -3059.07)" gradientUnits="userSpaceOnUse"><stop offset="0" stop-color="#33c481"/><stop offset="1" stop-color="#21a366"/></linearGradient><linearGradient id="linear-gradient-5" x1="492.83" y1="-1537.76" x2="496.97" y2="-1549.14" gradientTransform="matrix(2.08, 0.12, 0.12, -2.08, -791.24, -3059.07)" gradientUnits="userSpaceOnUse"><stop offset="0" stop-color="#f09ca2"/><stop offset="1" stop-color="#eb6773"/></linearGradient><linearGradient id="linear-gradient-6" x1="493.61" y1="-1546.72" x2="497.43" y2="-1557.2" gradientTransform="matrix(0, 2.08, 2.08, 0, 3291.21, -804.54)" gradientUnits="userSpaceOnUse"><stop offset="0" stop-color="#32bdef"/><stop offset="1" stop-color="#1ea2e4"/></linearGradient></defs><title>Asset 2</title><g id="Layer_2" data-name="Layer 2"><g id="Layer_1-2" data-name="Layer 1"><rect class="cls-1" x="19.61" y="12.4" width="91.69" height="91.69" rx="23.31" transform="matrix(0.98, -0.21, 0.21, 0.98, -10.58, 14.7)"/><path class="cls-2" d="M68.18,71.37c-17,3.52-31.49.49-33-6.89S45.73,48.55,62.72,45s31.49-.49,33,6.89S85.17,67.84,68.18,71.37ZM63.26,47.66C46.67,51.1,36.73,58.8,37.79,63.94S51,72.18,67.64,68.73,94.18,57.59,93.11,52.45,79.86,44.21,63.26,47.66Z"/><path class="cls-2" d="M59.36,87.76a6.25,6.25,0,0,1-3.62-.21C48.52,85.2,47.26,70.49,52.63,54h0c2.53-7.67,6.2-14.48,10.17-19.15,4.32-5,8.68-7.16,12.23-6S80.84,34.39,81.39,41c.47,6.22-.69,13.88-3.22,21.55S72,77,68,81.71C65.12,85.05,62.13,87.19,59.36,87.76Zm12.73-56.5c-2.11.44-4.63,2.2-7.17,5.2a57.8,57.8,0,0,0-9.65,18.35h0C50,70.89,51.73,83.44,56.6,85c2.51.85,5.95-1.1,9.38-5.11a57.8,57.8,0,0,0,9.65-18.35C78.08,54.2,79.19,47,78.81,41.13c-.44-5.4-2-8.92-4.5-9.78A5.87,5.87,0,0,0,72.09,31.26Z"/><path class="cls-2" d="M82.94,82.87c-6.59,1.36-17.74-4.7-27.45-15.74-11.62-13-16.31-27-10.63-32h0c5.69-5,19.06,1.13,30.68,14.1,5.38,6,9.49,12.6,11.53,18.49,2.26,6.26,1.88,11-1,13.67A7.27,7.27,0,0,1,82.94,82.87ZM46.65,37.09c-3.83,3.41-.47,15.62,10.81,28.26s23,17.35,26.8,14c2-1.79,2-5.64.23-10.77-2-5.5-5.86-11.7-11-17.49-11.28-12.63-23-17.35-26.8-13.95Z"/><circle class="cls-2" cx="65.45" cy="58.19" r="5.38"/><rect class="cls-1" x="657.89" y="348.14" width="94.86" height="94.86" rx="24.86" transform="translate(-28.38 55.52) rotate(-4.42)"/><path class="cls-3" d="M684.67,415.49l17.75-41.41a1.17,1.17,0,0,1,2.08-.15l8.55,14Z"/><path class="cls-4" d="M684.67,415.47l3.65-48.07a1.32,1.32,0,0,1,2.42-.61L708,393.94Z"/><path class="cls-5" d="M684.68,415.47l.26-.25,22.61-22-8-12.56Z"/><path class="cls-6" d="M684.67,415.49l33.94-38.81a1.33,1.33,0,0,1,2.29.57L729,411.71,709.28,425.6a2.76,2.76,0,0,1-2.72.23Z"/><rect class="cls-1" x="69.47" y="351.78" width="91.39" height="91.39" rx="23.23" transform="translate(-297.77 424.58) rotate(-77.6)"/><path class="cls-7" d="M109.37,425.61a4.48,4.48,0,0,1-2.05-1l-6-5.49c-.91-.79-.36-.89,0-.94a13.7,13.7,0,0,0,3.4-.77.52.52,0,0,1,.51.14l4.64,4.23a.71.71,0,0,0,.64.13l23.06-7.65a.63.63,0,0,0,.43-.49L138.87,390a.67.67,0,0,0-.2-.63l-18.15-16.14a.68.68,0,0,0-.64-.13l-23,7.64a.66.66,0,0,0-.44.49L91.48,405a.63.63,0,0,0,.21.62l5,4.42c2.75,2.17,5,.75,5.37-1.07l4.84-23.47a.59.59,0,0,1,.72-.47l2.61.54a.59.59,0,0,1,.47.71l-4.84,23.49c-.84,4.09-3.56,6-7.43,5.18-1.19-.25-2.13-.44-4.49-2.27l-4.76-4.24a4.43,4.43,0,0,1-1.39-4.2l4.9-23.79a4.43,4.43,0,0,1,2.94-3.31l23.09-7.65a4.64,4.64,0,0,1,4.34.89l18.15,16.16a4.44,4.44,0,0,1,1.38,4.2l-4.9,23.79a4.47,4.47,0,0,1-2.94,3.31l-23.06,7.66a4.56,4.56,0,0,1-2.29.13"/><path class="cls-7" d="M119.11,410.53c-9-1.86-10-6.39-9.34-9.86a.61.61,0,0,1,.72-.47l2.67.55a.6.6,0,0,1,.48.62c-.16,2.8.76,4.41,6.21,5.54,4.35.89,6.4.29,6.87-2,.28-1.33,0-2.42-6.66-4.47-5.53-1.73-8.76-3.69-7.83-8.2.86-4.16,4.88-5.91,10.75-4.7,6.6,1.36,9.4,4.32,8.8,9.33a.61.61,0,0,1-.26.43.65.65,0,0,1-.47.1l-2.68-.55a.61.61,0,0,1-.48-.59c-.06-3-1.43-4.22-5.67-5.09-4.74-1-5.63.56-5.89,1.79-.3,1.51.25,2.08,6.48,4.24s8.92,4,8,8.41-5.21,6.29-11.74,4.95"/><rect class="cls-1" x="683.17" y="6.92" width="91.08" height="91.08" rx="23.64" transform="translate(29.96 265.83) rotate(-21.1)"/><path class="cls-8" d="M721.79,34.52q-10.45,4-10.54,14.54a.67.67,0,0,0,1.28.3,9.46,9.46,0,0,1,7.66-5.64c2.49-.31,4.76.72,7.26,1.85,4.08,1.85,8.81,4,16.22,1.12q10.46-4,10.54-14.55a.67.67,0,0,0-1.28-.29,9.44,9.44,0,0,1-7.65,5.63c-2.5.31-4.76-.71-7.27-1.85-4.08-1.84-8.81-4-16.22-1.11Zm-8,23.71q-10.44,4-10.53,14.55a.67.67,0,0,0,1.28.3,9.4,9.4,0,0,1,7.65-5.63c2.5-.31,4.76.71,7.27,1.84,4.08,1.85,8.8,4,16.22,1.12q10.46-4,10.54-14.55a.68.68,0,0,0-1.29-.29,9.44,9.44,0,0,1-7.65,5.63c-2.49.31-4.76-.71-7.26-1.85-4.09-1.84-8.81-4-16.23-1.12Z"/><rect class="cls-1" x="711.09" y="173.57" width="91.08" height="91.08" rx="23.64" transform="translate(300.51 861.34) rotate(-70.77)"/><path class="cls-9" d="M779.3,220.8c-9.62,27.58-35.58,27.88-35.58,27.88s-20.14-16.38-10.52-44a78.3,78.3,0,0,1,3.47-8.29,8.25,8.25,0,0,1,8-4.9,64.08,64.08,0,0,1,17.8,3.34,66,66,0,0,1,16.14,8.5,8.43,8.43,0,0,1,3.24,8.83C781.21,214.52,780.43,217.57,779.3,220.8Z"/><path class="cls-10" d="M761.09,198.9a64.43,64.43,0,0,1,15.16,8,4.23,4.23,0,0,1,1.6,4.48c-.64,2.64-1.45,5.38-2.39,8.07-7.32,21-25,24.33-30.19,24.78-3.74-3.71-15.5-17.33-8.23-38.19.94-2.69,2-5.33,3.16-7.8a4.06,4.06,0,0,1,4-2.52,64.71,64.71,0,0,1,16.86,3.17m1.41-4a66.25,66.25,0,0,0-17.93-3.39,8.28,8.28,0,0,0-7.9,4.95,82.62,82.62,0,0,0-3.47,8.29c-9.62,27.59,10.52,44,10.52,44s26-.3,35.58-27.88a76.75,76.75,0,0,0,2.45-8.66,8.25,8.25,0,0,0-3.24-8.82,63.84,63.84,0,0,0-16-8.46Z"/><path class="cls-11" d="M750,226.71l2.56.89-3.76,10.77-2.56-.9Z"/><path class="cls-10" d="M759.68,202.93s-10,4-13.79,14.82c-2.44,7,.24,12.91,1.71,15.69l2.69-3.59-.13,4.48c2.88-1.26,8.66-4.22,11.1-11.22C765,212.34,759.68,202.93,759.68,202.93Z"/><path class="cls-12" d="M759.68,202.93s-10,4-13.79,14.82c-2.44,7,.24,12.91,1.71,15.69l2.69-3.59Z"/><rect class="cls-1" x="1.9" y="181.98" width="91.08" height="91.08" rx="23.64" transform="translate(-182.72 259.83) rotate(-86.21)"/><path class="cls-13" d="M49.34,218.66,38.19,218c-5.39-.31-9.53-4.56-9.25-9.5h0c.28-4.94,4.87-8.7,10.26-8.39l11.15.63Z"/><path class="cls-14" d="M46.93,236.47l-9.75-.56c-5.39-.3-9.53-4.55-9.25-9.49h0c.28-4.94,4.87-8.7,10.26-8.39l9.75.55Z"/><path class="cls-15" d="M36.17,253.8h0c-5.39-.3-9.53-4.55-9.25-9.49h0c.28-4.94,4.87-8.7,10.26-8.4l9.75.56-.5,8.94C46.15,250.35,41.55,254.11,36.17,253.8Z"/><path class="cls-16" d="M57.7,219.13l-9.76-.55,1-17.89,9.75.55c5.39.3,9.53,4.56,9.25,9.5h0C67.68,215.68,63.09,219.43,57.7,219.13Z"/><ellipse class="cls-17" cx="57.19" cy="228.07" rx="8.96" ry="9.77" transform="translate(-173.74 272.3) rotate(-86.76)"/></g></g></svg>