<svg width="41" height="56" viewBox="0 0 41 56" fill="none" xmlns="http://www.w3.org/2000/svg">
<path d="M21.9711 19.0938L10.8046 18.921C5.4164 18.8315 1.09585 14.755 1.17333 9.8077C1.25081 4.86037 5.69299 0.915148 11.0812 1.00458L22.2476 1.17748L21.9711 19.0938Z" fill="url(#paint0_linear_311_401)"/>
<path d="M20.3022 36.9773L10.5278 36.8275C5.13008 36.7484 0.819515 32.6715 0.896994 27.7242C0.974472 22.7769 5.41666 18.8317 10.8048 18.9211L20.5792 19.071L20.3022 36.9773Z" fill="url(#paint1_linear_311_401)"/>
<path d="M10.2506 54.7441C4.85285 54.665 0.542292 50.5881 0.619771 45.6408C0.697249 40.6935 5.12938 36.7487 10.5271 36.8277L20.3015 36.9776L20.1604 45.9909C20.0809 50.8883 15.6488 54.8331 10.2506 54.7441Z" fill="url(#paint2_linear_311_401)"/>
<path d="M30.3531 19.2211L20.5888 19.0709L20.8554 1.15497L30.6297 1.30484C36.0175 1.38428 40.3284 5.47118 40.261 10.4181C40.2035 15.3646 35.7401 19.2806 30.3531 19.2211Z" fill="url(#paint3_linear_311_401)"/>
<path d="M40.0242 28.3905C40.1013 23.4426 35.7902 19.3633 30.395 19.2792C24.9999 19.1951 20.5637 23.138 20.4866 28.0859C20.4095 33.0337 24.7205 37.1129 30.1157 37.197C35.5109 37.2811 39.9471 33.3383 40.0242 28.3905Z" fill="url(#paint4_linear_311_401)"/>
<defs>
<linearGradient id="paint0_linear_311_401" x1="6.72199" y1="1.05513" x2="15.0907" y2="25.2828" gradientUnits="userSpaceOnUse">
<stop stop-color="#F44F5A"/>
<stop offset="0.44" stop-color="#EE3D4A"/>
<stop offset="1" stop-color="#E52030"/>
</linearGradient>
<linearGradient id="paint1_linear_311_401" x1="5.51671" y1="18.372" x2="13.826" y2="42.4111" gradientUnits="userSpaceOnUse">
<stop stop-color="#AE4CD5"/>
<stop offset="1" stop-color="#9331BF"/>
</linearGradient>
<linearGradient id="paint2_linear_311_401" x1="4.20396" y1="33.3325" x2="12.8709" y2="58.4194" gradientUnits="userSpaceOnUse">
<stop stop-color="#33C481"/>
<stop offset="1" stop-color="#21A366"/>
</linearGradient>
<linearGradient id="paint3_linear_311_401" x1="22.5269" y1="0.443934" x2="30.7559" y2="24.2941" gradientUnits="userSpaceOnUse">
<stop stop-color="#F09CA2"/>
<stop offset="1" stop-color="#EB6773"/>
</linearGradient>
<linearGradient id="paint4_linear_311_401" x1="22.6323" y1="13.1579" x2="30.2164" y2="35.0771" gradientUnits="userSpaceOnUse">
<stop stop-color="#32BDEF"/>
<stop offset="1" stop-color="#1EA2E4"/>
</linearGradient>
</defs>
</svg>
