<svg width="52" height="67" viewBox="0 0 52 67" fill="none" xmlns="http://www.w3.org/2000/svg">
<path d="M2.27872 49.7929L25.453 11.1515C25.5612 10.9651 25.7191 10.8126 25.9092 10.711C26.0992 10.6094 26.3138 10.5627 26.5289 10.5762C26.744 10.5897 26.9511 10.6629 27.1269 10.7875C27.3027 10.9121 27.4403 11.0832 27.5243 11.2816L34.1212 26.3068L2.27872 49.7929Z" fill="#FF8F00"/>
<path d="M2.28144 49.773L12.3809 2.63359C12.4378 2.36447 12.5779 2.12007 12.7815 1.93507C12.9851 1.75008 13.2417 1.63388 13.515 1.6029C13.7884 1.57193 14.0645 1.62777 14.3043 1.76252C14.5441 1.89727 14.7354 2.1041 14.851 2.35366L28.2783 31.5779L2.28144 49.773Z" fill="#FFA000"/>
<path d="M2.28135 49.7728L2.57265 49.5601L27.9423 30.8559L21.7064 17.3331L2.28135 49.7728Z" fill="#FF6F00"/>
<path d="M2.27875 49.7926L41.195 15.9143C41.3792 15.7552 41.6036 15.6498 41.8437 15.6094C42.0837 15.5691 42.3301 15.5953 42.5562 15.6854C42.7823 15.7755 42.9795 15.9258 43.126 16.1202C43.2726 16.3145 43.363 16.5453 43.3874 16.7875L46.8132 52.0297L25.3528 63.1311C24.9254 63.3464 24.4494 63.4468 23.9714 63.4225C23.4935 63.3983 23.03 63.2501 22.6266 62.9927L2.27875 49.7926Z" fill="#FFC400"/>
</svg>
