<svg width="68" height="72" viewBox="0 0 68 72" fill="none" xmlns="http://www.w3.org/2000/svg">
<path d="M56.2738 28.8487C56.0647 58.0793 31.5332 66.6978 31.5332 66.6978C31.5332 66.6978 7.19483 57.6662 7.41969 28.4197C7.47684 25.4219 7.70151 22.4297 8.09261 19.457C8.24294 17.7882 8.89719 16.2045 9.96861 14.9163C11.04 13.628 12.4779 12.6961 14.0914 12.2441C19.9158 10.5443 25.9525 9.68144 32.0199 9.68132C38.1286 9.79512 44.1918 10.7566 50.0361 12.5383C51.6366 13.0331 53.0535 13.9935 54.1057 15.297C55.158 16.6005 55.798 18.188 55.9442 19.8569C56.053 22.2912 56.2954 25.4301 56.2738 28.8487Z" fill="#5D4037"/>
<path d="M31.9778 13.9729C37.7158 14.1093 43.4094 15.017 48.9054 16.6715C49.715 16.9248 50.4298 17.4156 50.9569 18.0803C51.484 18.745 51.7992 19.5528 51.8613 20.3988C52.1045 23.1044 52.2188 25.9593 52.194 28.8087C52.0176 51.0472 36.3483 59.887 31.5788 61.9825C26.8537 59.6694 11.3283 50.559 11.5118 28.4659C11.5366 25.6165 11.6912 22.7758 11.9856 20.0672C12.0376 19.2213 12.3524 18.4127 12.8861 17.7543C13.4197 17.0959 14.1456 16.6205 14.9625 16.3945C20.4879 14.8376 26.1962 14.0243 31.9366 13.9763M31.9851 9.7353C25.8767 9.7492 19.7997 10.6088 13.927 12.2894C12.3284 12.7705 10.912 13.7224 9.86277 15.0208C8.81354 16.3193 8.18033 17.904 8.04568 19.5679C7.67484 22.5428 7.46806 25.5359 7.42645 28.5335C7.19194 57.7516 31.54 66.8116 31.54 66.8116C31.54 66.8116 56.0619 58.1646 56.2712 28.9657C56.2845 25.9642 56.1258 22.9644 55.796 19.9811C55.6725 18.3067 55.0409 16.7097 53.9858 15.4037C52.9307 14.0977 51.5023 13.1447 49.8913 12.6719C44.1005 10.8734 38.0831 9.90898 32.0204 9.80784L31.9851 9.7353Z" fill="#4CAF50"/>
<path d="M30.3749 43.8879L33.0852 43.9072L33.0115 55.3489L30.298 55.3201L30.3749 43.8879Z" fill="#DCEDC8"/>
<path d="M31.9678 18.2324C31.9678 18.2324 23.8019 25.2837 23.6869 36.6972C23.6186 44.1133 28.0572 48.8472 30.3433 51.0066L31.7356 46.7421L33.0629 51.0226C35.3846 48.9033 39.8959 44.2447 39.9547 36.8318C40.0223 25.4344 31.9678 18.2324 31.9678 18.2324Z" fill="#4CAF50"/>
<path d="M31.9678 18.2324C31.9678 18.2324 23.8019 25.2837 23.6869 36.6972C23.6186 44.1133 28.0572 48.8472 30.3433 51.0066L31.7356 46.7421L31.9678 18.2324Z" fill="#81C784"/>
</svg>
