<svg width="66" height="67" viewBox="0 0 66 67" fill="none" xmlns="http://www.w3.org/2000/svg">
<path d="M32.8955 62.6718C32.1381 62.6604 31.3961 62.4559 30.7398 62.0776L23.7911 57.852C22.7455 57.253 23.2559 57.0504 23.6093 56.9298C24.7059 56.5938 25.7566 56.123 26.7373 55.5282C26.8193 55.488 26.9106 55.4705 27.0016 55.4776C27.0927 55.4848 27.1802 55.5163 27.2549 55.5688L32.6255 58.8213C32.7262 58.8741 32.838 58.902 32.9516 58.9027C33.0652 58.9033 33.1774 58.8767 33.2786 58.825L54.4329 46.8566C54.5309 46.7982 54.6124 46.7158 54.6697 46.6171C54.7269 46.5185 54.758 46.4068 54.76 46.2927L54.9653 22.0042C54.9669 21.8884 54.9384 21.7741 54.8826 21.6725C54.8269 21.571 54.7458 21.4856 54.6472 21.4248L33.7178 9.10076C33.6183 9.04448 33.506 9.01459 33.3917 9.01394C33.2774 9.01328 33.1648 9.04188 33.0647 9.09702L11.9771 21.0421C11.8776 21.1001 11.7945 21.1825 11.7356 21.2815C11.6767 21.3804 11.6438 21.4928 11.6402 21.6079L11.4252 45.8984C11.4273 46.0128 11.4583 46.1248 11.5153 46.224C11.5723 46.3232 11.6534 46.4065 11.7511 46.4661L17.5117 49.8353C20.6295 51.4323 22.5623 49.6039 22.5733 47.7467L22.7816 23.7838C22.7815 23.7036 22.7975 23.6242 22.8286 23.5503C22.8597 23.4765 22.9052 23.4096 22.9626 23.3536C23.02 23.2977 23.088 23.2538 23.1626 23.2245C23.2372 23.1953 23.3169 23.1813 23.397 23.1833L26.0622 23.2082C26.142 23.2071 26.2212 23.2219 26.2952 23.2518C26.3692 23.2817 26.4365 23.3261 26.4932 23.3823C26.5498 23.4385 26.5947 23.5055 26.6251 23.5793C26.6556 23.653 26.671 23.7321 26.6705 23.8119L26.4562 47.7965C26.4233 51.9717 24.134 54.3699 20.1686 54.3159C18.9528 54.3009 17.9938 54.2963 15.3342 52.9555L9.73013 49.7082C9.06302 49.3117 8.5112 48.7476 8.12945 48.0719C7.7477 47.3963 7.54927 46.6325 7.55389 45.8565L7.8063 21.5485C7.81113 20.7725 8.02016 20.0115 8.41238 19.3419C8.80459 18.6724 9.36615 18.1179 10.0406 17.7342L31.1969 5.77561C31.8793 5.4105 32.6424 5.22227 33.4163 5.22814C34.1902 5.23401 34.9503 5.43381 35.6271 5.80924L56.5604 18.1528C57.2275 18.5494 57.7793 19.1135 58.161 19.7891C58.5428 20.4648 58.7412 21.2286 58.7366 22.0046L58.551 46.2893C58.5386 47.0737 58.319 47.8409 57.9146 48.5131C57.5101 49.1854 56.9352 49.7387 56.2479 50.1171L35.1642 62.0817C34.4844 62.4581 33.7197 62.6545 32.9427 62.6523" fill="#21A366"/>
<path d="M39.5443 45.9903C30.3545 45.9065 28.4382 41.6671 28.4733 38.1234C28.4759 37.9623 28.542 37.8088 28.6573 37.6963C28.7726 37.5838 28.9277 37.5215 29.0888 37.5229L31.803 37.5382C31.949 37.5405 32.0895 37.5942 32.1997 37.69C32.31 37.7857 32.3829 37.9173 32.4056 38.0615C32.7903 40.8396 33.9946 42.2431 39.5701 42.2955C44.0002 42.3291 45.8954 41.3439 45.9234 39.0043C45.931 37.6472 45.4552 36.63 38.5146 35.9091C32.7544 35.2815 29.2063 33.9834 29.2463 29.3787C29.2853 25.1309 32.8908 22.6362 38.8938 22.6859C45.6322 22.7434 48.9519 25.1059 49.3226 30.1393C49.3296 30.2246 49.3187 30.3104 49.2908 30.3913C49.2629 30.4723 49.2186 30.5465 49.1605 30.6095C49.0396 30.7279 48.8782 30.7961 48.709 30.8004L45.9732 30.7793C45.835 30.7765 45.7019 30.7269 45.5956 30.6386C45.4893 30.5503 45.4162 30.4286 45.3881 30.2933C44.7489 27.3615 43.1688 26.4296 38.8504 26.3944C34.0065 26.3302 33.4252 28.0348 33.4179 29.2899C33.4059 30.8314 34.0655 31.2823 40.5859 32.1982C47.1062 33.1142 50.121 34.3952 50.0617 38.9018C50.0024 43.4084 46.1767 46.0789 39.5109 46.0275" fill="#21A366"/>
</svg>
