<svg width="66" height="65" viewBox="0 0 66 65" fill="none" xmlns="http://www.w3.org/2000/svg">
<path d="M33.1662 46.0135C15.8078 46.2905 2.13082 40.601 2.03813 33.0707C1.94544 25.5404 15.3604 19.3511 32.7207 19.0642C50.0809 18.7772 63.7561 24.4766 63.8488 32.0069C63.9414 39.5372 50.5241 45.6854 33.1662 46.0135ZM32.7693 21.8016C15.8189 22.0749 4.61372 27.7792 4.70499 33.0188C4.79626 38.2584 16.1774 43.6022 33.1199 43.3172C50.0624 43.0321 61.2831 37.3003 61.2011 32.0116C61.1192 26.7229 49.7193 21.4773 32.7768 21.7623L32.7693 21.8016Z" fill="#80DEEA"/>
<path d="M21.4329 60.4226C20.2024 60.4825 18.9818 60.1756 17.9259 59.5409C11.2731 55.8815 12.7778 41.1937 21.1402 25.9898C25.0606 18.9286 29.9399 12.9255 34.7234 9.08266C39.8928 4.97737 44.5898 3.67317 47.8503 5.47502C51.1107 7.27688 52.5347 11.9865 51.8363 18.5925C51.1244 24.7887 48.5615 32.0983 44.6411 39.1594C40.7207 46.2206 35.8414 52.2237 31.0579 56.0666C27.5982 58.8382 24.2606 60.3809 21.4329 60.4226ZM44.5094 7.30219C42.3642 7.3415 39.5593 8.59893 36.5029 11.0707C31.256 15.6567 26.8784 21.1507 23.5801 27.2893C15.3553 42.0918 14.7459 54.7513 19.2306 57.2343C21.5372 58.5389 25.3304 57.2763 29.401 53.9695C34.646 49.3818 39.0233 43.8881 42.3237 37.751C46.1113 30.9597 48.5563 24.0552 49.264 18.2552C49.8519 12.8701 48.9683 9.11856 46.6733 7.80599C45.9907 7.5016 45.2562 7.33058 44.5094 7.30219Z" fill="#80DEEA"/>
<path d="M45.5115 60.0309C38.7835 60.1339 28.9643 52.0947 21.4914 39.4329C12.5089 24.4883 10.5211 9.85801 17.0461 6.01093C23.5712 2.16384 35.5483 10.6853 44.5462 25.6023C48.6988 32.5011 51.5013 39.7535 52.4131 45.923C53.4619 52.4953 52.1919 57.0786 48.873 59.1645C47.8376 59.7172 46.6851 60.0143 45.5115 60.0309ZM18.428 8.26938C14.0276 10.9026 15.0438 23.5256 23.7596 38.0529C32.4754 52.5802 43.1072 59.3999 47.4762 56.7709C49.7758 55.3867 50.4961 51.6047 49.727 46.236C48.7914 40.4589 46.1596 33.6462 42.1937 26.9967C33.476 12.4793 22.8461 5.64978 18.4865 8.22963L18.428 8.26938Z" fill="#80DEEA"/>
<path d="M31.9422 37.7991C34.861 38.3551 37.6779 36.4396 38.2338 33.5208C38.7897 30.602 36.8742 27.7851 33.9554 27.2292C31.0366 26.6733 28.2197 28.5888 27.6638 31.5076C27.1079 34.4264 29.0234 37.2432 31.9422 37.7991Z" fill="#80DEEA"/>
</svg>
