<svg width="59" height="52" viewBox="0 0 59 52" fill="none" xmlns="http://www.w3.org/2000/svg">
<path d="M26.1945 7.00818C18.862 8.34506 14.5176 12.4643 13.1611 19.3659C13.127 19.5173 13.1466 19.6758 13.2165 19.8144C13.2863 19.953 13.4021 20.063 13.5441 20.1257C13.686 20.1883 13.8454 20.1998 13.9949 20.1581C14.1444 20.1163 14.2747 20.024 14.3637 19.8968C15.2967 18.512 16.5808 17.3997 18.0846 16.6737C19.5885 15.9478 21.2581 15.6341 22.9229 15.7649C25.4371 15.9215 27.4684 17.3507 29.7268 18.9244C33.3955 21.4953 37.6378 24.4792 45.4617 23.0175C52.8073 21.6831 57.1519 17.5639 58.4953 10.6599C58.5267 10.5089 58.505 10.3517 58.434 10.2148C58.363 10.0779 58.2469 9.96972 58.1054 9.90848C57.9638 9.84724 57.8055 9.83667 57.6571 9.87862C57.5087 9.92057 57.3793 10.0125 57.2907 10.1387C56.3559 11.5208 55.0715 12.6303 53.5683 13.3544C52.0651 14.0785 50.3968 14.3913 48.7334 14.2608C46.2289 14.1061 44.1862 12.6848 41.9394 11.1032C38.259 8.5402 34.0184 5.54649 26.1945 7.00818ZM13.9558 28.8452C6.61021 30.1796 2.26252 34.2982 0.912554 41.201C0.878521 41.3524 0.898098 41.5109 0.967966 41.6495C1.03783 41.7881 1.15357 41.8981 1.29555 41.9608C1.43753 42.0235 1.59693 42.035 1.74641 41.9932C1.89589 41.9515 2.02618 41.8591 2.11515 41.7319C3.05031 40.348 4.33635 39.2373 5.84162 38.5133C7.34689 37.7894 9.0174 37.4782 10.6824 37.6117C13.1868 37.7664 15.2198 39.1859 17.4783 40.7595C21.147 43.3305 25.3991 46.3162 33.2132 44.8526C40.5588 43.5182 44.9066 39.3997 46.2566 32.4969C46.288 32.3459 46.2664 32.1887 46.1953 32.0518C46.1243 31.9149 46.0082 31.8067 45.8667 31.7454C45.7252 31.6842 45.5669 31.6737 45.4185 31.7156C45.27 31.7576 45.1406 31.8494 45.0521 31.9757C44.1172 33.3577 42.8328 34.4673 41.3296 35.1914C39.8264 35.9155 38.1581 36.2282 36.4947 36.0977C33.9804 35.9412 31.9475 34.5218 29.6909 32.9383C26.0204 30.3772 21.7699 27.3817 13.9558 28.8452Z" fill="url(#paint0_linear_311_404)"/>
<defs>
<linearGradient id="paint0_linear_311_404" x1="18.5983" y1="1.57812" x2="30.5364" y2="37.7798" gradientUnits="userSpaceOnUse">
<stop stop-color="#00C1E0"/>
<stop offset="1" stop-color="#009BB8"/>
</linearGradient>
</defs>
</svg>
