<svg width="1830" height="988" viewBox="0 0 1830 988" fill="none" xmlns="http://www.w3.org/2000/svg">
<path d="M1787.01 123.8H1527.5C1515.3 123.8 1503.6 118.954 1494.97 110.327C1486.35 101.7 1481.5 90 1481.5 77.8V44.88C1481.5 38.9885 1480.35 33.154 1478.1 27.7097C1475.84 22.2655 1472.54 17.3182 1468.38 13.1504C1464.21 8.98264 1459.27 5.67613 1453.83 3.41974C1448.39 1.16335 1442.55 0.00131228 1436.66 0H75.39C65.4863 -1.39399e-06 55.6796 1.95134 46.5303 5.74255C37.3809 9.53375 29.0682 15.0905 22.0671 22.0954C15.066 29.1002 9.51359 37.4159 5.72724 46.5672C1.94089 55.7186 -0.00524405 65.5263 1.06125e-05 75.43V818.07C1.06125e-05 831.066 5.1625 843.529 14.3518 852.718C23.5411 861.908 36.0044 867.07 49 867.07L388.5 869C400.97 869.56 411.31 868.94 419.45 870.89C424.034 872.014 428.107 874.645 431.017 878.36C433.927 882.076 435.506 886.661 435.5 891.38L435.63 942.32C435.53 943.47 435.48 944.62 435.47 945.77C435.13 965.91 449.36 986.04 469.47 986.04L1754.05 987.04C1774.04 987.04 1793.22 979.097 1807.36 964.959C1821.5 950.82 1829.44 931.645 1829.44 911.65V166.27C1829.44 155.013 1824.97 144.217 1817.02 136.253C1809.06 128.29 1798.27 123.811 1787.01 123.8Z" fill="#1A1A1A"/>
</svg>
