<svg width="817" height="549" viewBox="0 0 817 549" fill="none" xmlns="http://www.w3.org/2000/svg">
<g clip-path="url(#clip0_2007_420)">
<mask id="mask0_2007_420" style="mask-type:alpha" maskUnits="userSpaceOnUse" x="-1" y="-98" width="819" height="744">
<path d="M18.5682 -97H0V-78.4M18.5682 -97V-78.4M18.5682 -97H37.1364M18.5682 -78.4H0M18.5682 -78.4V-59.8M18.5682 -78.4H37.1364M0 -78.4V-59.8M18.5682 -59.8H0M18.5682 -59.8V-41.2M18.5682 -59.8H37.1364M0 -59.8V-41.2M18.5682 -41.2H0M18.5682 -41.2V-22.6M18.5682 -41.2H37.1364M0 -41.2V-22.6M18.5682 -22.6H0M18.5682 -22.6V-4M18.5682 -22.6H37.1364M0 -22.6V-4M18.5682 -4H0M18.5682 -4V14.6M18.5682 -4H37.1364M0 -4V14.6M18.5682 14.6H0M18.5682 14.6V33.2M18.5682 14.6H37.1364M0 14.6V33.2M18.5682 33.2H0M18.5682 33.2V51.8M18.5682 33.2H37.1364M0 33.2V51.8M18.5682 51.8H0M18.5682 51.8V70.4M18.5682 51.8H37.1364M0 51.8V70.4M18.5682 70.4H0M18.5682 70.4V89M18.5682 70.4H37.1364M0 70.4V89M18.5682 89H0M18.5682 89V107.6M18.5682 89H37.1364M0 89V107.6M18.5682 107.6H0M18.5682 107.6V126.2M18.5682 107.6H37.1364M0 107.6V126.2M18.5682 126.2H0M18.5682 126.2V144.8M18.5682 126.2H37.1364M0 126.2V144.8M18.5682 144.8H0M18.5682 144.8V163.4M18.5682 144.8H37.1364M0 144.8V163.4M18.5682 163.4H0M18.5682 163.4V182M18.5682 163.4H37.1364M0 163.4V182M18.5682 182H0M18.5682 182V200.6M18.5682 182H37.1364M0 182V200.6M18.5682 200.6H0M18.5682 200.6V219.2M18.5682 200.6H37.1364M0 200.6V219.2M18.5682 219.2H0M18.5682 219.2V237.8M18.5682 219.2H37.1364M0 219.2V237.8M18.5682 237.8H0M18.5682 237.8V256.4M18.5682 237.8H37.1364M0 237.8V256.4M18.5682 256.4H0M18.5682 256.4V275M18.5682 256.4H37.1364M0 256.4V275H18.5682M18.5682 275H37.1364M37.1364 -97V-78.4M37.1364 -97H55.7045M37.1364 -78.4V-59.8M37.1364 -78.4H55.7045M37.1364 -59.8V-41.2M37.1364 -59.8H55.7045M37.1364 -41.2V-22.6M37.1364 -41.2H55.7045M37.1364 -22.6V-4M37.1364 -22.6H55.7045M37.1364 -4V14.6M37.1364 -4H55.7045M37.1364 14.6V33.2M37.1364 14.6H55.7045M37.1364 33.2V51.8M37.1364 33.2H55.7045M37.1364 51.8V70.4M37.1364 51.8H55.7045M37.1364 70.4V89M37.1364 70.4H55.7045M37.1364 89V107.6M37.1364 89H55.7045M37.1364 107.6V126.2M37.1364 107.6H55.7045M37.1364 126.2V144.8M37.1364 126.2H55.7045M37.1364 144.8V163.4M37.1364 144.8H55.7045M37.1364 163.4V182M37.1364 163.4H55.7045M37.1364 182V200.6M37.1364 182H55.7045M37.1364 200.6V219.2M37.1364 200.6H55.7045M37.1364 219.2V237.8M37.1364 219.2H55.7045M37.1364 237.8V256.4M37.1364 237.8H55.7045M37.1364 256.4V275M37.1364 256.4H55.7045M37.1364 275H55.7045M55.7045 -97V-78.4M55.7045 -97H74.2727M55.7045 -78.4V-59.8M55.7045 -78.4H74.2727M55.7045 -59.8V-41.2M55.7045 -59.8H74.2727M55.7045 -41.2V-22.6M55.7045 -41.2H74.2727M55.7045 -22.6V-4M55.7045 -22.6H74.2727M55.7045 -4V14.6M55.7045 -4H74.2727M55.7045 14.6V33.2M55.7045 14.6H74.2727M55.7045 33.2V51.8M55.7045 33.2H74.2727M55.7045 51.8V70.4M55.7045 51.8H74.2727M55.7045 70.4V89M55.7045 70.4H74.2727M55.7045 89V107.6M55.7045 89H74.2727M55.7045 107.6V126.2M55.7045 107.6H74.2727M55.7045 126.2V144.8M55.7045 126.2H74.2727M55.7045 144.8V163.4M55.7045 144.8H74.2727M55.7045 163.4V182M55.7045 163.4H74.2727M55.7045 182V200.6M55.7045 182H74.2727M55.7045 200.6V219.2M55.7045 200.6H74.2727M55.7045 219.2V237.8M55.7045 219.2H74.2727M55.7045 237.8V256.4M55.7045 237.8H74.2727M55.7045 256.4V275M55.7045 256.4H74.2727M55.7045 275H74.2727M74.2727 -97V-78.4M74.2727 -97H92.8409M74.2727 -78.4V-59.8M74.2727 -78.4H92.8409M74.2727 -59.8V-41.2M74.2727 -59.8H92.8409M74.2727 -41.2V-22.6M74.2727 -41.2H92.8409M74.2727 -22.6V-4M74.2727 -22.6H92.8409M74.2727 -4V14.6M74.2727 -4H92.8409M74.2727 14.6V33.2M74.2727 14.6H92.8409M74.2727 33.2V51.8M74.2727 33.2H92.8409M74.2727 51.8V70.4M74.2727 51.8H92.8409M74.2727 70.4V89M74.2727 70.4H92.8409M74.2727 89V107.6M74.2727 89H92.8409M74.2727 107.6V126.2M74.2727 107.6H92.8409M74.2727 126.2V144.8M74.2727 126.2H92.8409M74.2727 144.8V163.4M74.2727 144.8H92.8409M74.2727 163.4V182M74.2727 163.4H92.8409M74.2727 182V200.6M74.2727 182H92.8409M74.2727 200.6V219.2M74.2727 200.6H92.8409M74.2727 219.2V237.8M74.2727 219.2H92.8409M74.2727 237.8V256.4M74.2727 237.8H92.8409M74.2727 256.4V275M74.2727 256.4H92.8409M74.2727 275H92.8409M92.8409 -97V-78.4M92.8409 -97H111.409M92.8409 -78.4V-59.8M92.8409 -78.4H111.409M92.8409 -59.8V-41.2M92.8409 -59.8H111.409M92.8409 -41.2V-22.6M92.8409 -41.2H111.409M92.8409 -22.6V-4M92.8409 -22.6H111.409M92.8409 -4V14.6M92.8409 -4H111.409M92.8409 14.6V33.2M92.8409 14.6H111.409M92.8409 33.2V51.8M92.8409 33.2H111.409M92.8409 51.8V70.4M92.8409 51.8H111.409M92.8409 70.4V89M92.8409 70.4H111.409M92.8409 89V107.6M92.8409 89H111.409M92.8409 107.6V126.2M92.8409 107.6H111.409M92.8409 126.2V144.8M92.8409 126.2H111.409M92.8409 144.8V163.4M92.8409 144.8H111.409M92.8409 163.4V182M92.8409 163.4H111.409M92.8409 182V200.6M92.8409 182H111.409M92.8409 200.6V219.2M92.8409 200.6H111.409M92.8409 219.2V237.8M92.8409 219.2H111.409M92.8409 237.8V256.4M92.8409 237.8H111.409M92.8409 256.4V275M92.8409 256.4H111.409M92.8409 275H111.409M111.409 -97V-78.4M111.409 -97H129.977M111.409 -78.4V-59.8M111.409 -78.4H129.977M111.409 -59.8V-41.2M111.409 -59.8H129.977M111.409 -41.2V-22.6M111.409 -41.2H129.977M111.409 -22.6V-4M111.409 -22.6H129.977M111.409 -4V14.6M111.409 -4H129.977M111.409 14.6V33.2M111.409 14.6H129.977M111.409 33.2V51.8M111.409 33.2H129.977M111.409 51.8V70.4M111.409 51.8H129.977M111.409 70.4V89M111.409 70.4H129.977M111.409 89V107.6M111.409 89H129.977M111.409 107.6V126.2M111.409 107.6H129.977M111.409 126.2V144.8M111.409 126.2H129.977M111.409 144.8V163.4M111.409 144.8H129.977M111.409 163.4V182M111.409 163.4H129.977M111.409 182V200.6M111.409 182H129.977M111.409 200.6V219.2M111.409 200.6H129.977M111.409 219.2V237.8M111.409 219.2H129.977M111.409 237.8V256.4M111.409 237.8H129.977M111.409 256.4V275M111.409 256.4H129.977M111.409 275H129.977M129.977 -97V-78.4M129.977 -97H148.545M129.977 -78.4V-59.8M129.977 -78.4H148.545M129.977 -59.8V-41.2M129.977 -59.8H148.545M129.977 -41.2V-22.6M129.977 -41.2H148.545M129.977 -22.6V-4M129.977 -22.6H148.545M129.977 -4V14.6M129.977 -4H148.545M129.977 14.6V33.2M129.977 14.6H148.545M129.977 33.2H148.545M129.977 33.2V51.8M129.977 51.8V70.4M129.977 51.8H148.545M129.977 70.4V89M129.977 70.4H148.545M129.977 89V107.6M129.977 89H148.545M129.977 107.6V126.2M129.977 107.6H148.545M129.977 126.2V144.8M129.977 126.2H148.545M129.977 144.8V163.4M129.977 144.8H148.545M129.977 163.4V182M129.977 163.4H148.545M129.977 182V200.6M129.977 182H148.545M129.977 200.6V219.2M129.977 200.6H148.545M129.977 219.2V237.8M129.977 219.2H148.545M129.977 237.8V256.4M129.977 237.8H148.545M129.977 256.4V275M129.977 256.4H148.545M129.977 275H148.545M148.545 -97V-78.4M148.545 -97H167.114M148.545 -78.4V-59.8M148.545 -78.4H167.114M148.545 -59.8V-41.2M148.545 -59.8H167.114M148.545 -41.2V-22.6M148.545 -41.2H167.114M148.545 -22.6V-4M148.545 -22.6H167.114M148.545 -4V14.6M148.545 -4H167.114M148.545 14.6V33.2M148.545 14.6H167.114M148.545 33.2V51.8M148.545 33.2H167.114M148.545 51.8V70.4M148.545 51.8H167.114M148.545 70.4V89M148.545 70.4H167.114M148.545 89V107.6M148.545 89H167.114M148.545 107.6V126.2M148.545 107.6H167.114M148.545 126.2V144.8M148.545 126.2H167.114M148.545 144.8V163.4M148.545 144.8C148.545 144.8 159.862 144.8 167.114 144.8M148.545 163.4V182M148.545 163.4H167.114M148.545 182V200.6M148.545 182H167.114M148.545 200.6V219.2M148.545 200.6H167.114M148.545 219.2V237.8M148.545 219.2H167.114M148.545 237.8V256.4M148.545 237.8H167.114M148.545 256.4V275M148.545 256.4H167.114M148.545 275H167.114M167.114 -97V-78.4M167.114 -97H185.682M167.114 -78.4V-59.8M167.114 -78.4H185.682M167.114 -59.8V-41.2M167.114 -59.8H185.682M167.114 -41.2V-22.6M167.114 -41.2H185.682M167.114 -22.6V-4M167.114 -22.6H185.682M167.114 -4V14.6M167.114 -4H185.682M167.114 14.6V33.2M167.114 14.6H185.682M167.114 33.2V51.8M167.114 33.2H185.682M167.114 51.8V70.4M167.114 51.8H185.682M167.114 70.4V89M167.114 70.4H185.682M167.114 89V107.6M167.114 89H185.682M167.114 107.6V126.2M167.114 107.6H185.682M167.114 126.2C167.114 126.2 167.114 137.536 167.114 144.8M167.114 126.2H185.682M167.114 144.8C167.114 152.064 167.114 163.4 167.114 163.4M167.114 144.8C174.365 144.8 185.682 144.8 185.682 144.8M167.114 163.4V182M167.114 163.4H185.682M167.114 182V200.6M167.114 182H185.682M167.114 200.6V219.2M167.114 200.6H185.682M167.114 219.2V237.8M167.114 219.2H185.682M167.114 237.8V256.4M167.114 237.8H185.682M167.114 256.4V275M167.114 256.4H185.682M167.114 275H185.682M185.682 -97V-78.4M185.682 -97H204.25M185.682 -78.4V-59.8M185.682 -78.4H204.25M185.682 -59.8V-41.2M185.682 -59.8H204.25M185.682 -41.2V-22.6M185.682 -41.2H204.25M185.682 -22.6V-4M185.682 -22.6H204.25M185.682 -4V14.6M185.682 -4H204.25M185.682 14.6V33.2M185.682 14.6H204.25M185.682 33.2V51.8M185.682 33.2H204.25M185.682 51.8V70.4M185.682 51.8H204.25M185.682 70.4V89M185.682 70.4H204.25M185.682 89V107.6M185.682 89H204.25M185.682 107.6V126.2M185.682 107.6H204.25M185.682 126.2V144.8M185.682 126.2H204.25M185.682 144.8V163.4M185.682 144.8H204.25M185.682 163.4V182M185.682 163.4H204.25M185.682 182V200.6M185.682 182H204.25M185.682 200.6V219.2M185.682 200.6H204.25M185.682 219.2V237.8M185.682 219.2H204.25M185.682 237.8V256.4M185.682 237.8H204.25M185.682 256.4V275M185.682 256.4H204.25M185.682 275H204.25M204.25 -97V-78.4M204.25 -97H222.818M204.25 -78.4V-59.8M204.25 -78.4H222.818M204.25 -59.8V-41.2M204.25 -59.8H222.818M204.25 -41.2V-22.6M204.25 -41.2H222.818M204.25 -22.6V-4M204.25 -22.6H612.75M204.25 -4V14.6M204.25 -4H612.75M204.25 14.6V33.2M204.25 14.6H222.818M204.25 33.2V51.8M204.25 33.2H222.818M204.25 51.8V70.4M204.25 51.8H222.818M204.25 70.4V89M204.25 70.4H222.818M204.25 89V107.6M204.25 89H222.818M204.25 107.6V126.2M204.25 107.6H222.818M204.25 126.2V144.8M204.25 126.2H222.818M204.25 144.8V163.4M204.25 144.8H222.818M204.25 163.4V182M204.25 163.4H222.818M204.25 182V200.6M204.25 182H222.818M204.25 200.6V219.2M204.25 200.6H222.818M204.25 219.2V237.8M204.25 219.2H222.818M204.25 237.8V256.4M204.25 237.8H222.818M204.25 256.4V275M204.25 256.4H222.818M204.25 275H222.818M222.818 -97V-78.4M222.818 -97H241.386M222.818 -78.4V-59.8M222.818 -78.4H241.386M222.818 -59.8V-41.2M222.818 -59.8H241.386M222.818 -41.2H241.386M222.818 -41.2V14.6M222.818 14.6V33.2M222.818 14.6H241.386M222.818 33.2V51.8M222.818 33.2H241.386M222.818 51.8V70.4M222.818 51.8H241.386M222.818 70.4V89M222.818 70.4H241.386M222.818 89V107.6M222.818 89H241.386M222.818 107.6V126.2M222.818 107.6H241.386M222.818 126.2V144.8M222.818 126.2H241.386M222.818 144.8V163.4M222.818 144.8H241.386M222.818 163.4V182M222.818 163.4H241.386M222.818 182V200.6M222.818 182H241.386M222.818 200.6V219.2M222.818 200.6H241.386M222.818 219.2V237.8M222.818 219.2H241.386M222.818 237.8V256.4M222.818 237.8H241.386M222.818 256.4V275M222.818 256.4H241.386M222.818 275H241.386M241.386 -97V-78.4M241.386 -97H259.955M241.386 -78.4V-59.8M241.386 -78.4H259.955M241.386 -59.8V-41.2M241.386 -59.8H259.955M241.386 -41.2H259.955M241.386 -41.2V14.6M241.386 14.6V33.2M241.386 14.6H259.955M241.386 33.2V51.8M241.386 33.2H259.955M241.386 51.8V70.4M241.386 51.8H259.955M241.386 70.4V89M241.386 70.4H259.955M241.386 89V107.6M241.386 89H259.955M241.386 107.6V126.2M241.386 107.6H259.955M241.386 126.2V144.8M241.386 126.2H259.955M241.386 144.8V163.4M241.386 144.8H259.955M241.386 163.4V182M241.386 163.4H259.955M241.386 182V200.6M241.386 182H259.955M241.386 200.6V219.2M241.386 200.6H259.955M241.386 219.2V237.8M241.386 219.2H259.955M241.386 237.8V256.4M241.386 237.8H259.955M241.386 256.4V275M241.386 256.4H259.955M241.386 275H259.955M259.955 -97V-78.4M259.955 -97H278.523M259.955 -78.4V-59.8M259.955 -78.4H278.523M259.955 -59.8V-41.2M259.955 -59.8H278.523M259.955 -41.2H278.523M259.955 -41.2V14.6M259.955 14.6V33.2M259.955 14.6H557.045M259.955 33.2V51.8M259.955 33.2H557.045M259.955 51.8V70.4M259.955 51.8H278.523M259.955 70.4V89M259.955 70.4H278.523M259.955 89V107.6M259.955 89H278.523M259.955 107.6V126.2M259.955 107.6H278.523M259.955 126.2V144.8M259.955 126.2H278.523M259.955 144.8V163.4M259.955 144.8H278.523M259.955 163.4V182M259.955 163.4H278.523M259.955 182V200.6M259.955 182H278.523M259.955 200.6V219.2M259.955 200.6H278.523M259.955 219.2V237.8M259.955 219.2H278.523M259.955 237.8V256.4M259.955 237.8H278.523M259.955 256.4V275M259.955 256.4H278.523M259.955 275H278.523M278.523 -97V-78.4M278.523 -97H297.091M278.523 -78.4V-59.8M278.523 -78.4H297.091M278.523 -59.8V-41.2M278.523 -59.8H297.091M278.523 -41.2H297.091M278.523 -41.2V51.8M278.523 51.8V70.4M278.523 51.8H297.091M278.523 70.4V89M278.523 70.4H297.091M278.523 89V107.6M278.523 89H297.091M278.523 107.6V126.2M278.523 107.6H297.091M278.523 126.2V144.8M278.523 126.2H297.091M278.523 144.8V163.4M278.523 144.8H297.091M278.523 163.4V182M278.523 163.4H297.091M278.523 182V200.6M278.523 182H297.091M278.523 200.6V219.2M278.523 200.6H297.091M278.523 219.2V237.8M278.523 219.2H297.091M278.523 237.8V256.4M278.523 237.8H297.091M278.523 256.4V275M278.523 256.4H297.091M278.523 275H297.091M297.091 -97V-78.4M297.091 -97H315.659M297.091 -78.4V-59.8M297.091 -78.4H315.659M297.091 -59.8V-41.2M297.091 -59.8H315.659M297.091 -41.2H315.659M297.091 -41.2V51.8M297.091 51.8V70.4M297.091 51.8H315.659M297.091 70.4V89M297.091 70.4H315.659M297.091 89V107.6M297.091 89H315.659M297.091 107.6V126.2M297.091 107.6H315.659M297.091 126.2V144.8M297.091 126.2H315.659M297.091 144.8V163.4M297.091 144.8H315.659M297.091 163.4V182M297.091 163.4H315.659M297.091 182V200.6M297.091 182H315.659M297.091 200.6V219.2M297.091 200.6H315.659M297.091 219.2V237.8M297.091 219.2H315.659M297.091 237.8V256.4M297.091 237.8H315.659M297.091 256.4V275M297.091 256.4H315.659M297.091 275H315.659M315.659 -97V-78.4M315.659 -97H334.227M315.659 -78.4V-59.8M315.659 -78.4H334.227M315.659 -59.8V-41.2M315.659 -59.8H334.227M315.659 -41.2H334.227M315.659 -41.2V51.8M315.659 51.8V70.4M315.659 51.8H334.227M315.659 70.4V89M315.659 70.4H334.227M315.659 89V107.6M315.659 89H334.227M315.659 107.6V126.2M315.659 107.6H334.227M315.659 126.2V144.8M315.659 126.2H334.227M315.659 144.8V163.4M315.659 144.8H334.227M315.659 163.4V182M315.659 163.4H334.227M315.659 182V200.6M315.659 182H334.227M315.659 200.6V219.2M315.659 200.6H334.227M315.659 219.2V237.8M315.659 219.2H334.227M315.659 237.8V256.4M315.659 237.8H334.227M315.659 256.4V275M315.659 256.4H334.227M315.659 275H334.227M334.227 -97V-78.4M334.227 -97H352.795M334.227 -78.4V-59.8M334.227 -78.4H352.795M334.227 -59.8V-41.2M334.227 -59.8H352.795M334.227 -41.2H352.795M334.227 -41.2V51.8M334.227 51.8V70.4M334.227 51.8H352.795M334.227 70.4V89M334.227 70.4H352.795M334.227 89V107.6M334.227 89H352.795M334.227 107.6V126.2M334.227 107.6H352.795M334.227 126.2V144.8M334.227 126.2H352.795M334.227 144.8V163.4M334.227 144.8H352.795M334.227 163.4V182M334.227 163.4H352.795M334.227 182V200.6M334.227 182H352.795M334.227 200.6V219.2M334.227 200.6H352.795M334.227 219.2V237.8M334.227 219.2H352.795M334.227 237.8V256.4M334.227 237.8H352.795M334.227 256.4V275M334.227 256.4H352.795M334.227 275H352.795M352.795 -97V-78.4M352.795 -97H371.364M352.795 -78.4V-59.8M352.795 -78.4H371.364M352.795 -59.8V-41.2M352.795 -59.8H371.364M352.795 -41.2H371.364M352.795 -41.2V51.8M352.795 51.8V70.4M352.795 51.8H371.364M352.795 70.4V89M352.795 70.4H371.364M352.795 89V107.6M352.795 89H371.364M352.795 107.6V126.2M352.795 107.6H371.364M352.795 126.2V144.8M352.795 126.2H371.364M352.795 144.8V163.4M352.795 144.8H371.364M352.795 163.4V182M352.795 163.4H371.364M352.795 182V200.6M352.795 182H371.364M352.795 200.6V219.2M352.795 200.6H371.364M352.795 219.2V237.8M352.795 219.2H371.364M352.795 237.8V256.4M352.795 237.8H371.364M352.795 256.4V275M352.795 256.4H371.364M352.795 275H371.364M371.364 -97V-78.4M371.364 -97H389.932M371.364 -78.4V-59.8M371.364 -78.4H389.932M371.364 -59.8V-41.2M371.364 -59.8H389.932M371.364 -41.2H389.932M371.364 -41.2V51.8M371.364 51.8V70.4M371.364 51.8H389.932M371.364 70.4V89M371.364 70.4H389.932M371.364 89V107.6M371.364 89H389.932M371.364 107.6V126.2M371.364 107.6H389.932M371.364 126.2V144.8M371.364 126.2H389.932M371.364 144.8V163.4M371.364 144.8H389.932M371.364 163.4V182M371.364 163.4H389.932M371.364 182V200.6M371.364 182H389.932M371.364 200.6V219.2M371.364 200.6H389.932M371.364 219.2V237.8M371.364 219.2H389.932M371.364 237.8V256.4M371.364 237.8H389.932M371.364 256.4V275M371.364 256.4H389.932M371.364 275H389.932M389.932 -97V-78.4M389.932 -97H408.5M389.932 -78.4H408.5M389.932 -78.4V-59.8M389.932 -59.8V-41.2M389.932 -59.8H408.5M389.932 -41.2H408.5M389.932 -41.2V51.8M389.932 51.8V70.4M389.932 51.8H408.5M389.932 70.4V89M389.932 70.4H408.5M389.932 89V107.6M389.932 89H408.5M389.932 107.6V126.2M389.932 107.6H408.5M389.932 126.2V144.8M389.932 126.2H408.5M389.932 144.8V163.4M389.932 144.8H408.5M389.932 163.4V182M389.932 163.4H408.5M389.932 182V200.6M389.932 182H408.5M389.932 200.6V219.2M389.932 200.6H408.5M389.932 219.2V237.8M389.932 219.2H408.5M389.932 237.8V256.4M389.932 237.8H408.5M389.932 256.4V275M389.932 256.4H408.5M389.932 275H408.5M408.5 -97V-78.4M408.5 -97H427.068M408.5 -78.4H427.068M408.5 -78.4V-59.8M408.5 -59.8V-41.2M408.5 -59.8H427.068M408.5 -41.2H427.068M408.5 -41.2V51.8M408.5 51.8V70.4M408.5 51.8H427.068M408.5 70.4V89M408.5 70.4H427.068M408.5 89V107.6M408.5 89H427.068M408.5 107.6V126.2M408.5 107.6H427.068M408.5 126.2V144.8M408.5 126.2H427.068M408.5 144.8V163.4M408.5 144.8H427.068M408.5 163.4V182M408.5 163.4H427.068M408.5 182V200.6M408.5 182H427.068M408.5 200.6V219.2M408.5 200.6H427.068M408.5 219.2V237.8M408.5 219.2H427.068M408.5 237.8V256.4M408.5 237.8H427.068M408.5 256.4V275M408.5 256.4H427.068M408.5 275H427.068M427.068 -97V-78.4M427.068 -97H445.636M427.068 -78.4H445.636M427.068 -78.4V-59.8M427.068 -59.8V-41.2M427.068 -59.8H445.636M427.068 -41.2H445.636M427.068 -41.2V51.8M427.068 51.8V70.4M427.068 51.8H445.636M427.068 70.4V89M427.068 70.4H445.636M427.068 89V107.6M427.068 89H445.636M427.068 107.6V126.2M427.068 107.6H445.636M427.068 126.2V144.8M427.068 126.2H445.636M427.068 144.8V163.4M427.068 144.8H445.636M427.068 163.4V182M427.068 163.4H445.636M427.068 182V200.6M427.068 182H445.636M427.068 200.6V219.2M427.068 200.6H445.636M427.068 219.2V237.8M427.068 219.2H445.636M427.068 237.8V256.4M427.068 237.8H445.636M427.068 256.4V275M427.068 256.4H445.636M427.068 275H445.636M445.636 -97V-78.4M445.636 -97H464.205M445.636 -78.4H464.205M445.636 -78.4V-59.8M445.636 -59.8V-41.2M445.636 -59.8H464.205M445.636 -41.2H464.205M445.636 -41.2V51.8M445.636 51.8V70.4M445.636 51.8H464.205M445.636 70.4V89M445.636 70.4H464.205M445.636 89V107.6M445.636 89H464.205M445.636 107.6V126.2M445.636 107.6H464.205M445.636 126.2V144.8M445.636 126.2H464.205M445.636 144.8V163.4M445.636 144.8H464.205M445.636 163.4V182M445.636 163.4H464.205M445.636 182V200.6M445.636 182H464.205M445.636 200.6V219.2M445.636 200.6H464.205M445.636 219.2V237.8M445.636 219.2H464.205M445.636 237.8V256.4M445.636 237.8H464.205M445.636 256.4V275M445.636 256.4H464.205M445.636 275H464.205M464.205 -97V-78.4M464.205 -97H482.773M464.205 -78.4V-59.8M464.205 -78.4H482.773M464.205 -59.8V-41.2M464.205 -59.8H482.773M464.205 -41.2H482.773M464.205 -41.2V51.8M464.205 51.8V70.4M464.205 51.8H482.773M464.205 70.4V89M464.205 70.4H482.773M464.205 89V107.6M464.205 89H482.773M464.205 107.6V126.2M464.205 107.6H482.773M464.205 126.2V144.8M464.205 126.2H482.773M464.205 144.8V163.4M464.205 144.8H482.773M464.205 163.4V182M464.205 163.4H482.773M464.205 182V200.6M464.205 182H482.773M464.205 200.6V219.2M464.205 200.6H482.773M464.205 219.2V237.8M464.205 219.2H482.773M464.205 237.8V256.4M464.205 237.8H482.773M464.205 256.4V275M464.205 256.4H482.773M464.205 275H482.773M482.773 -97V-78.4M482.773 -97H501.341M482.773 -78.4V-59.8M482.773 -78.4H501.341M482.773 -59.8V-41.2M482.773 -59.8H501.341M482.773 -41.2H501.341M482.773 -41.2V51.8M482.773 51.8V70.4M482.773 51.8H501.341M482.773 70.4V89M482.773 70.4H501.341M482.773 89V107.6M482.773 89H501.341M482.773 107.6V126.2M482.773 107.6H501.341M482.773 126.2V144.8M482.773 126.2H501.341M482.773 144.8V163.4M482.773 144.8H501.341M482.773 163.4V182M482.773 163.4H501.341M482.773 182V200.6M482.773 182H501.341M482.773 200.6V219.2M482.773 200.6H501.341M482.773 219.2V237.8M482.773 219.2H501.341M482.773 237.8V256.4M482.773 237.8H501.341M482.773 256.4V275M482.773 256.4H501.341M482.773 275H501.341M501.341 -97V-78.4M501.341 -97H519.909M501.341 -78.4V-59.8M501.341 -78.4H519.909M501.341 -59.8V-41.2M501.341 -59.8H519.909M501.341 -41.2H519.909M501.341 -41.2V51.8M501.341 51.8V70.4M501.341 51.8H519.909M501.341 70.4V89M501.341 70.4H519.909M501.341 89V107.6M501.341 89H519.909M501.341 107.6V126.2M501.341 107.6H519.909M501.341 126.2V144.8M501.341 126.2H519.909M501.341 144.8V163.4M501.341 144.8H519.909M501.341 163.4V182M501.341 163.4H519.909M501.341 182V200.6M501.341 182H519.909M501.341 200.6V219.2M501.341 200.6H519.909M501.341 219.2V237.8M501.341 219.2H519.909M501.341 237.8V256.4M501.341 237.8H519.909M501.341 256.4V275M501.341 256.4H519.909M501.341 275H519.909M519.909 -97V-78.4M519.909 -97H538.477M519.909 -78.4V-59.8M519.909 -78.4H538.477M519.909 -59.8V-41.2M519.909 -59.8H538.477M519.909 -41.2H538.477M519.909 -41.2V51.8M519.909 51.8V70.4M519.909 51.8H538.477M519.909 70.4V89M519.909 70.4H538.477M519.909 89V107.6M519.909 89H538.477M519.909 107.6V126.2M519.909 107.6H538.477M519.909 126.2V144.8M519.909 126.2H538.477M519.909 144.8V163.4M519.909 144.8H538.477M519.909 163.4V182M519.909 163.4H538.477M519.909 182V200.6M519.909 182H538.477M519.909 200.6V219.2M519.909 200.6H538.477M519.909 219.2V237.8M519.909 219.2H538.477M519.909 237.8V256.4M519.909 237.8H538.477M519.909 256.4V275M519.909 256.4H538.477M519.909 275H538.477M538.477 -97V-78.4M538.477 -97H557.045M538.477 -78.4V-59.8M538.477 -78.4H557.045M538.477 -59.8V-41.2M538.477 -59.8H557.045M538.477 -41.2H557.045M538.477 -41.2V51.8M538.477 51.8V70.4M538.477 51.8H557.045M538.477 70.4V89M538.477 70.4H557.045M538.477 89V107.6M538.477 89H557.045M538.477 107.6V126.2M538.477 107.6H557.045M538.477 126.2V144.8M538.477 126.2H557.045M538.477 144.8V163.4M538.477 144.8H557.045M538.477 163.4V182M538.477 163.4H557.045M538.477 182V200.6M538.477 182H557.045M538.477 200.6V219.2M538.477 200.6H557.045M538.477 219.2V237.8M538.477 219.2H557.045M538.477 237.8V256.4M538.477 237.8H557.045M538.477 256.4V275M538.477 256.4H557.045M538.477 275H557.045M557.045 -97V-78.4M557.045 -97H575.614M557.045 -78.4V-59.8M557.045 -78.4H575.614M557.045 -59.8V-41.2M557.045 -59.8H575.614M557.045 -41.2H575.614M557.045 -41.2V14.6M557.045 14.6V33.2M557.045 14.6H575.614M557.045 33.2V51.8M557.045 33.2H575.614M557.045 51.8V70.4M557.045 51.8H575.614M557.045 70.4V89M557.045 70.4H575.614M557.045 89V107.6M557.045 89H575.614M557.045 107.6V126.2M557.045 107.6H575.614M557.045 126.2V144.8M557.045 126.2H575.614M557.045 144.8V163.4M557.045 144.8H575.614M557.045 163.4V182M557.045 163.4H575.614M557.045 182V200.6M557.045 182H575.614M557.045 200.6V219.2M557.045 200.6H575.614M557.045 219.2V237.8M557.045 219.2H575.614M557.045 237.8V256.4M557.045 237.8H575.614M557.045 256.4V275M557.045 256.4H575.614M557.045 275H575.614M575.614 -97V-78.4M575.614 -97H594.182M575.614 -78.4V-59.8M575.614 -78.4H594.182M575.614 -59.8V-41.2M575.614 -59.8H594.182M575.614 -41.2H594.182M575.614 -41.2V14.6M575.614 14.6V33.2M575.614 14.6H594.182M575.614 33.2V51.8M575.614 33.2H594.182M575.614 51.8V70.4M575.614 51.8H594.182M575.614 70.4V89M575.614 70.4H594.182M575.614 89V107.6M575.614 89H594.182M575.614 107.6V126.2M575.614 107.6H594.182M575.614 126.2V144.8M575.614 126.2H594.182M575.614 144.8V163.4M575.614 144.8H594.182M575.614 163.4V182M575.614 163.4H594.182M575.614 182V200.6M575.614 182H594.182M575.614 200.6V219.2M575.614 200.6H594.182M575.614 219.2V237.8M575.614 219.2H594.182M575.614 237.8V256.4M575.614 237.8H594.182M575.614 256.4V275M575.614 256.4H594.182M575.614 275H594.182M594.182 -97V-78.4M594.182 -97H612.75M594.182 -78.4V-59.8M594.182 -78.4H612.75M594.182 -59.8V-41.2M594.182 -59.8H612.75M594.182 -41.2H612.75M594.182 -41.2V14.6M594.182 14.6V33.2M594.182 14.6H612.75M594.182 33.2V51.8M594.182 33.2H612.75M594.182 51.8V70.4M594.182 51.8H612.75M594.182 70.4V89M594.182 70.4H612.75M594.182 89V107.6M594.182 89H612.75M594.182 107.6V126.2M594.182 107.6H612.75M594.182 126.2V144.8M594.182 126.2H612.75M594.182 144.8V163.4M594.182 144.8H612.75M594.182 163.4V182M594.182 163.4H612.75M594.182 182V200.6M594.182 182H612.75M594.182 200.6V219.2M594.182 200.6H612.75M594.182 219.2V237.8M594.182 219.2H612.75M594.182 237.8V256.4M594.182 237.8H612.75M594.182 256.4V275M594.182 256.4H612.75M594.182 275H612.75M612.75 -97V-78.4M612.75 -97H631.318M612.75 -78.4V-59.8M612.75 -78.4H631.318M612.75 -59.8V-41.2M612.75 -59.8H631.318M612.75 -41.2V-22.6M612.75 -41.2H631.318M612.75 -22.6V-4M612.75 -22.6H631.318M612.75 -4V14.6M612.75 -4H631.318M612.75 14.6V33.2M612.75 14.6H631.318M612.75 33.2V51.8M612.75 33.2H631.318M612.75 51.8V70.4M612.75 51.8H631.318M612.75 70.4V89M612.75 70.4H631.318M612.75 89V107.6M612.75 89H631.318M612.75 107.6V126.2M612.75 107.6H631.318M612.75 126.2V144.8M612.75 126.2H631.318M612.75 144.8V163.4M612.75 144.8H631.318M612.75 163.4V182M612.75 163.4H631.318M612.75 182V200.6M612.75 182H631.318M612.75 200.6V219.2M612.75 200.6H631.318M612.75 219.2V237.8M612.75 219.2H631.318M612.75 237.8V256.4M612.75 237.8H631.318M612.75 256.4V275M612.75 256.4H631.318M612.75 275H631.318M631.318 -97V-78.4M631.318 -97H649.886M631.318 -78.4V-59.8M631.318 -78.4H649.886M631.318 -59.8V-41.2M631.318 -59.8H649.886M631.318 -41.2V-22.6M631.318 -41.2H649.886M631.318 -22.6V-4M631.318 -22.6H649.886M631.318 -4V14.6M631.318 -4H649.886M631.318 14.6V33.2M631.318 14.6H649.886M631.318 33.2V51.8M631.318 33.2H649.886M631.318 51.8V70.4M631.318 51.8H649.886M631.318 70.4V89M631.318 70.4H649.886M631.318 89V107.6M631.318 89H649.886M631.318 107.6V126.2M631.318 107.6H649.886M631.318 126.2V144.8M631.318 126.2H649.886M631.318 144.8V163.4M631.318 144.8H649.886M631.318 163.4V182M631.318 163.4H649.886M631.318 182V200.6M631.318 182H649.886M631.318 200.6V219.2M631.318 200.6H649.886M631.318 219.2V237.8M631.318 219.2H649.886M631.318 237.8V256.4M631.318 237.8H649.886M631.318 256.4V275M631.318 256.4H649.886M631.318 275H649.886M649.886 -97V-78.4M649.886 -97H668.455M649.886 -78.4V-59.8M649.886 -78.4H668.455M649.886 -59.8V-41.2M649.886 -59.8H668.455M649.886 -41.2V-22.6M649.886 -41.2H668.455M649.886 -22.6V-4M649.886 -22.6H668.455M649.886 -4V14.6M649.886 -4H668.455M649.886 14.6V33.2M649.886 14.6H668.455M649.886 33.2V51.8M649.886 33.2H668.455M649.886 51.8V70.4M649.886 51.8H668.455M649.886 70.4V89M649.886 70.4H668.455M649.886 89V107.6M649.886 89H668.455M649.886 107.6V126.2M649.886 107.6H668.455M649.886 126.2V144.8M649.886 126.2H668.455M649.886 144.8V163.4M649.886 144.8H668.455M649.886 163.4V182M649.886 163.4H668.455M649.886 182V200.6M649.886 182H668.455M649.886 200.6V219.2M649.886 200.6H668.455M649.886 219.2V237.8M649.886 219.2H668.455M649.886 237.8V256.4M649.886 237.8H668.455M649.886 256.4V275M649.886 256.4H668.455M649.886 275H668.455M668.455 -97V-78.4M668.455 -97H687.023M668.455 -78.4V-59.8M668.455 -78.4H687.023M668.455 -59.8V-41.2M668.455 -59.8H687.023M668.455 -41.2V-22.6M668.455 -41.2H687.023M668.455 -22.6V-4M668.455 -22.6H687.023M668.455 -4V14.6M668.455 -4H687.023M668.455 14.6V33.2M668.455 14.6H687.023M668.455 33.2V51.8M668.455 33.2H687.023M668.455 51.8V70.4M668.455 51.8H687.023M668.455 70.4V89M668.455 70.4H687.023M668.455 89V107.6M668.455 89H687.023M668.455 107.6V126.2M668.455 107.6H687.023M668.455 126.2V144.8M668.455 126.2H687.023M668.455 144.8V163.4M668.455 144.8H687.023M668.455 163.4V182M668.455 163.4H687.023M668.455 182V200.6M668.455 182H687.023M668.455 200.6V219.2M668.455 200.6H687.023M668.455 219.2V237.8M668.455 219.2H687.023M668.455 237.8V256.4M668.455 237.8H687.023M668.455 256.4V275M668.455 256.4H687.023M668.455 275H687.023M687.023 -97V-78.4M687.023 -97H705.591M687.023 -78.4V-59.8M687.023 -78.4H705.591M687.023 -59.8V-41.2M687.023 -59.8H705.591M687.023 -41.2V-22.6M687.023 -41.2H705.591M687.023 -22.6V-4M687.023 -22.6H705.591M687.023 -4V14.6M687.023 -4H705.591M687.023 14.6V33.2M687.023 14.6H705.591M687.023 33.2H705.591M687.023 33.2V51.8M687.023 51.8V70.4M687.023 51.8H705.591M687.023 70.4V89M687.023 70.4H705.591M687.023 89V107.6M687.023 89H705.591M687.023 107.6V126.2M687.023 107.6H705.591M687.023 126.2V144.8M687.023 126.2H705.591M687.023 144.8V163.4M687.023 144.8H705.591M687.023 163.4V182M687.023 163.4H705.591M687.023 182V200.6M687.023 182H705.591M687.023 200.6V219.2M687.023 200.6H705.591M687.023 219.2V237.8M687.023 219.2H705.591M687.023 237.8V256.4M687.023 237.8H705.591M687.023 256.4V275M687.023 256.4H705.591M687.023 275H705.591M705.591 -97V-78.4M705.591 -97H724.159M705.591 -78.4V-59.8M705.591 -78.4H724.159M705.591 -59.8V-41.2M705.591 -59.8H724.159M705.591 -41.2V-22.6M705.591 -41.2H724.159M705.591 -22.6V-4M705.591 -22.6H724.159M705.591 -4V14.6M705.591 -4H724.159M705.591 14.6V33.2M705.591 14.6H724.159M705.591 33.2V51.8M705.591 33.2H724.159M705.591 51.8V70.4M705.591 51.8H724.159M705.591 70.4V89M705.591 70.4H724.159M705.591 89V107.6M705.591 89H724.159M705.591 107.6V126.2M705.591 107.6H724.159M705.591 126.2V144.8M705.591 126.2H724.159M705.591 144.8V163.4M705.591 144.8H724.159M705.591 163.4V182M705.591 163.4H724.159M705.591 182V200.6M705.591 182H724.159M705.591 200.6V219.2M705.591 200.6H724.159M705.591 219.2V237.8M705.591 219.2H724.159M705.591 237.8V256.4M705.591 237.8H724.159M705.591 256.4V275M705.591 256.4H724.159M705.591 275H724.159M724.159 -97V-78.4M724.159 -97H742.727M724.159 -78.4V-59.8M724.159 -78.4H742.727M724.159 -59.8V-41.2M724.159 -59.8H742.727M724.159 -41.2V-22.6M724.159 -41.2H742.727M724.159 -22.6V-4M724.159 -22.6H742.727M724.159 -4V14.6M724.159 -4H742.727M724.159 14.6V33.2M724.159 14.6H742.727M724.159 33.2V51.8M724.159 33.2H742.727M724.159 51.8V70.4M724.159 51.8H742.727M724.159 70.4V89M724.159 70.4H742.727M724.159 89V107.6M724.159 89H742.727M724.159 107.6V126.2M724.159 107.6H742.727M724.159 126.2V144.8M724.159 126.2H742.727M724.159 144.8V163.4M724.159 144.8H742.727M724.159 163.4V182M724.159 163.4H742.727M724.159 182V200.6M724.159 182H742.727M724.159 200.6V219.2M724.159 200.6H742.727M724.159 219.2V237.8M724.159 219.2H742.727M724.159 237.8V256.4M724.159 237.8H742.727M724.159 256.4V275M724.159 256.4H742.727M724.159 275H742.727M742.727 -97V-78.4M742.727 -97H761.295M742.727 -78.4V-59.8M742.727 -78.4H761.295M742.727 -59.8V-41.2M742.727 -59.8H761.295M742.727 -41.2V-22.6M742.727 -41.2H761.295M742.727 -22.6V-4M742.727 -22.6H761.295M742.727 -4V14.6M742.727 -4H761.295M742.727 14.6V33.2M742.727 14.6H761.295M742.727 33.2V51.8M742.727 33.2H761.295M742.727 51.8V70.4M742.727 51.8H761.295M742.727 70.4V89M742.727 70.4H761.295M742.727 89V107.6M742.727 89H761.295M742.727 107.6V126.2M742.727 107.6H761.295M742.727 126.2V144.8M742.727 126.2H761.295M742.727 144.8V163.4M742.727 144.8H761.295M742.727 163.4V182M742.727 163.4H761.295M742.727 182V200.6M742.727 182H761.295M742.727 200.6V219.2M742.727 200.6H761.295M742.727 219.2V237.8M742.727 219.2H761.295M742.727 237.8V256.4M742.727 237.8H761.295M742.727 256.4V275M742.727 256.4H761.295M742.727 275H761.295M761.295 -97V-78.4M761.295 -97H779.864M761.295 -78.4V-59.8M761.295 -78.4H779.864M761.295 -59.8V-41.2M761.295 -59.8H779.864M761.295 -41.2V-22.6M761.295 -41.2H779.864M761.295 -22.6V-4M761.295 -22.6H779.864M761.295 -4V14.6M761.295 -4H779.864M761.295 14.6V33.2M761.295 14.6H779.864M761.295 33.2V51.8M761.295 33.2H779.864M761.295 51.8V70.4M761.295 51.8H779.864M761.295 70.4V89M761.295 70.4H779.864M761.295 89V107.6M761.295 89H779.864M761.295 107.6V126.2M761.295 107.6H779.864M761.295 126.2V144.8M761.295 126.2H779.864M761.295 144.8V163.4M761.295 144.8H779.864M761.295 163.4V182M761.295 163.4H779.864M761.295 182V200.6M761.295 182H779.864M761.295 200.6V219.2M761.295 200.6H779.864M761.295 219.2V237.8M761.295 219.2H779.864M761.295 237.8V256.4M761.295 237.8H779.864M761.295 256.4V275M761.295 256.4H779.864M761.295 275H779.864M779.864 -97V-78.4M779.864 -97H798.432M779.864 -78.4V-59.8M779.864 -78.4H798.432M779.864 -59.8V-41.2M779.864 -59.8H798.432M779.864 -41.2V-22.6M779.864 -41.2H798.432M779.864 -22.6V-4M779.864 -22.6H798.432M779.864 -4V14.6M779.864 -4H798.432M779.864 14.6V33.2M779.864 14.6H798.432M779.864 33.2V51.8M779.864 33.2H798.432M779.864 51.8V70.4M779.864 51.8H798.432M779.864 70.4V89M779.864 70.4H798.432M779.864 89V107.6M779.864 89H798.432M779.864 107.6V126.2M779.864 107.6H798.432M779.864 126.2V144.8M779.864 126.2H798.432M779.864 144.8V163.4M779.864 144.8H798.432M779.864 163.4V182M779.864 163.4H798.432M779.864 182V200.6M779.864 182H798.432M779.864 200.6V219.2M779.864 200.6H798.432M779.864 219.2V237.8M779.864 219.2H798.432M779.864 237.8V256.4M779.864 237.8H798.432M779.864 256.4V275M779.864 256.4H798.432M779.864 275H798.432M798.432 -97V-78.4M798.432 -97H817V-78.4M798.432 -78.4V-59.8M798.432 -78.4H817M798.432 -59.8V-41.2M798.432 -59.8H817M798.432 -41.2V-22.6M798.432 -41.2H817M798.432 -22.6V-4M798.432 -22.6H817M798.432 -4V14.6M798.432 -4H817M798.432 14.6V33.2M798.432 14.6H817M798.432 33.2V51.8M798.432 33.2H817M798.432 51.8V70.4M798.432 51.8H817M798.432 70.4V89M798.432 70.4H817M798.432 89V107.6M798.432 89H817M798.432 107.6V126.2M798.432 107.6H817M798.432 126.2V144.8M798.432 126.2H817M798.432 144.8V163.4M798.432 144.8H817M798.432 163.4V182M798.432 163.4H817M798.432 182V200.6M798.432 182H817M798.432 200.6V219.2M798.432 200.6H817M798.432 219.2V237.8M798.432 219.2H817M798.432 237.8V256.4M798.432 237.8H817M798.432 256.4V275M798.432 256.4H817M798.432 275H817V256.4M817 -78.4V-59.8M817 -59.8V-41.2M817 -41.2V-22.6M817 -22.6V-4M817 -4V14.6M817 14.6V33.2M817 33.2V51.8M817 51.8V70.4M817 70.4V89M817 89V107.6M817 107.6V126.2M817 126.2V144.8M817 144.8V163.4M817 163.4V182M817 182V200.6M817 200.6V219.2M817 219.2V237.8M817 237.8V256.4" stroke="black"/>
<path d="M18.5682 273H0V291.6M18.5682 273V291.6M18.5682 273H37.1364M18.5682 291.6H0M18.5682 291.6V310.2M18.5682 291.6H37.1364M0 291.6V310.2M18.5682 310.2H0M18.5682 310.2V328.8M18.5682 310.2H37.1364M0 310.2V328.8M18.5682 328.8H0M18.5682 328.8V347.4M18.5682 328.8H37.1364M0 328.8V347.4M18.5682 347.4H0M18.5682 347.4V366M18.5682 347.4H37.1364M0 347.4V366M18.5682 366H0M18.5682 366V384.6M18.5682 366H37.1364M0 366V384.6M18.5682 384.6H0M18.5682 384.6V403.2M18.5682 384.6H37.1364M0 384.6V403.2M18.5682 403.2H0M18.5682 403.2V421.8M18.5682 403.2H37.1364M0 403.2V421.8M18.5682 421.8H0M18.5682 421.8V440.4M18.5682 421.8H37.1364M0 421.8V440.4M18.5682 440.4H0M18.5682 440.4V459M18.5682 440.4H37.1364M0 440.4V459M18.5682 459H0M18.5682 459V477.6M18.5682 459H37.1364M0 459V477.6M18.5682 477.6H0M18.5682 477.6V496.2M18.5682 477.6H37.1364M0 477.6V496.2M18.5682 496.2H0M18.5682 496.2V514.8M18.5682 496.2H37.1364M0 496.2V514.8M18.5682 514.8H0M18.5682 514.8V533.4M18.5682 514.8H37.1364M0 514.8V533.4M18.5682 533.4H0M18.5682 533.4V552M18.5682 533.4H37.1364M0 533.4V552M18.5682 552H0M18.5682 552V570.6M18.5682 552H37.1364M0 552V570.6M18.5682 570.6H0M18.5682 570.6V589.2M18.5682 570.6H37.1364M0 570.6V589.2M18.5682 589.2H0M18.5682 589.2V607.8M18.5682 589.2H37.1364M0 589.2V607.8M18.5682 607.8H0M18.5682 607.8V626.4M18.5682 607.8H37.1364M0 607.8V626.4M18.5682 626.4H0M18.5682 626.4V645M18.5682 626.4H37.1364M0 626.4V645H18.5682M18.5682 645H37.1364M37.1364 273V291.6M37.1364 273H55.7045M37.1364 291.6V310.2M37.1364 291.6H55.7045M37.1364 310.2V328.8M37.1364 310.2H55.7045M37.1364 328.8V347.4M37.1364 328.8H55.7045M37.1364 347.4V366M37.1364 347.4H55.7045M37.1364 366V384.6M37.1364 366H55.7045M37.1364 384.6V403.2M37.1364 384.6H55.7045M37.1364 403.2V421.8M37.1364 403.2H55.7045M37.1364 421.8V440.4M37.1364 421.8H55.7045M37.1364 440.4V459M37.1364 440.4H55.7045M37.1364 459V477.6M37.1364 459H55.7045M37.1364 477.6V496.2M37.1364 477.6H55.7045M37.1364 496.2V514.8M37.1364 496.2H55.7045M37.1364 514.8V533.4M37.1364 514.8H55.7045M37.1364 533.4V552M37.1364 533.4H55.7045M37.1364 552V570.6M37.1364 552H55.7045M37.1364 570.6V589.2M37.1364 570.6H55.7045M37.1364 589.2V607.8M37.1364 589.2H55.7045M37.1364 607.8V626.4M37.1364 607.8H55.7045M37.1364 626.4V645M37.1364 626.4H55.7045M37.1364 645H55.7045M55.7045 273V291.6M55.7045 273H74.2727M55.7045 291.6V310.2M55.7045 291.6H74.2727M55.7045 310.2V328.8M55.7045 310.2H74.2727M55.7045 328.8V347.4M55.7045 328.8H74.2727M55.7045 347.4V366M55.7045 347.4H74.2727M55.7045 366V384.6M55.7045 366H74.2727M55.7045 384.6V403.2M55.7045 384.6H74.2727M55.7045 403.2V421.8M55.7045 403.2H74.2727M55.7045 421.8V440.4M55.7045 421.8H74.2727M55.7045 440.4V459M55.7045 440.4H74.2727M55.7045 459V477.6M55.7045 459H74.2727M55.7045 477.6V496.2M55.7045 477.6H74.2727M55.7045 496.2V514.8M55.7045 496.2H74.2727M55.7045 514.8V533.4M55.7045 514.8H74.2727M55.7045 533.4V552M55.7045 533.4H74.2727M55.7045 552V570.6M55.7045 552H74.2727M55.7045 570.6V589.2M55.7045 570.6H74.2727M55.7045 589.2V607.8M55.7045 589.2H74.2727M55.7045 607.8V626.4M55.7045 607.8H74.2727M55.7045 626.4V645M55.7045 626.4H74.2727M55.7045 645H74.2727M74.2727 273V291.6M74.2727 273H92.8409M74.2727 291.6V310.2M74.2727 291.6H92.8409M74.2727 310.2V328.8M74.2727 310.2H92.8409M74.2727 328.8V347.4M74.2727 328.8H92.8409M74.2727 347.4V366M74.2727 347.4H92.8409M74.2727 366V384.6M74.2727 366H92.8409M74.2727 384.6V403.2M74.2727 384.6H92.8409M74.2727 403.2V421.8M74.2727 403.2H92.8409M74.2727 421.8V440.4M74.2727 421.8H92.8409M74.2727 440.4V459M74.2727 440.4H92.8409M74.2727 459V477.6M74.2727 459H92.8409M74.2727 477.6V496.2M74.2727 477.6H92.8409M74.2727 496.2V514.8M74.2727 496.2H92.8409M74.2727 514.8V533.4M74.2727 514.8H92.8409M74.2727 533.4V552M74.2727 533.4H92.8409M74.2727 552V570.6M74.2727 552H92.8409M74.2727 570.6V589.2M74.2727 570.6H92.8409M74.2727 589.2V607.8M74.2727 589.2H92.8409M74.2727 607.8V626.4M74.2727 607.8H92.8409M74.2727 626.4V645M74.2727 626.4H92.8409M74.2727 645H92.8409M92.8409 273V291.6M92.8409 273H111.409M92.8409 291.6V310.2M92.8409 291.6H111.409M92.8409 310.2V328.8M92.8409 310.2H111.409M92.8409 328.8V347.4M92.8409 328.8H111.409M92.8409 347.4V366M92.8409 347.4H111.409M92.8409 366V384.6M92.8409 366H111.409M92.8409 384.6V403.2M92.8409 384.6H111.409M92.8409 403.2V421.8M92.8409 403.2H111.409M92.8409 421.8V440.4M92.8409 421.8H111.409M92.8409 440.4V459M92.8409 440.4H111.409M92.8409 459V477.6M92.8409 459H111.409M92.8409 477.6V496.2M92.8409 477.6H111.409M92.8409 496.2V514.8M92.8409 496.2H111.409M92.8409 514.8V533.4M92.8409 514.8H111.409M92.8409 533.4V552M92.8409 533.4H111.409M92.8409 552V570.6M92.8409 552H111.409M92.8409 570.6V589.2M92.8409 570.6H111.409M92.8409 589.2V607.8M92.8409 589.2H111.409M92.8409 607.8V626.4M92.8409 607.8H111.409M92.8409 626.4V645M92.8409 626.4H111.409M92.8409 645H111.409M111.409 273V291.6M111.409 273H129.977M111.409 291.6V310.2M111.409 291.6H129.977M111.409 310.2V328.8M111.409 310.2H129.977M111.409 328.8V347.4M111.409 328.8H129.977M111.409 347.4V366M111.409 347.4H129.977M111.409 366V384.6M111.409 366H129.977M111.409 384.6V403.2M111.409 384.6H129.977M111.409 403.2V421.8M111.409 403.2H129.977M111.409 421.8V440.4M111.409 421.8H129.977M111.409 440.4V459M111.409 440.4H129.977M111.409 459V477.6M111.409 459H129.977M111.409 477.6V496.2M111.409 477.6H129.977M111.409 496.2V514.8M111.409 496.2H129.977M111.409 514.8V533.4M111.409 514.8H129.977M111.409 533.4V552M111.409 533.4H129.977M111.409 552V570.6M111.409 552H129.977M111.409 570.6V589.2M111.409 570.6H129.977M111.409 589.2V607.8M111.409 589.2H129.977M111.409 607.8V626.4M111.409 607.8H129.977M111.409 626.4V645M111.409 626.4H129.977M111.409 645H129.977M129.977 273V291.6M129.977 273H148.545M129.977 291.6V310.2M129.977 291.6H148.545M129.977 310.2V328.8M129.977 310.2H148.545M129.977 328.8V347.4M129.977 328.8H148.545M129.977 347.4V366M129.977 347.4H148.545M129.977 366V384.6M129.977 366H148.545M129.977 384.6V403.2M129.977 384.6H148.545M129.977 403.2H148.545M129.977 403.2V421.8M129.977 421.8V440.4M129.977 421.8H148.545M129.977 440.4V459M129.977 440.4H148.545M129.977 459V477.6M129.977 459H148.545M129.977 477.6V496.2M129.977 477.6H148.545M129.977 496.2V514.8M129.977 496.2H148.545M129.977 514.8V533.4M129.977 514.8H148.545M129.977 533.4V552M129.977 533.4H148.545M129.977 552V570.6M129.977 552H148.545M129.977 570.6V589.2M129.977 570.6H148.545M129.977 589.2V607.8M129.977 589.2H148.545M129.977 607.8V626.4M129.977 607.8H148.545M129.977 626.4V645M129.977 626.4H148.545M129.977 645H148.545M148.545 273V291.6M148.545 273H167.114M148.545 291.6V310.2M148.545 291.6H167.114M148.545 310.2V328.8M148.545 310.2H167.114M148.545 328.8V347.4M148.545 328.8H167.114M148.545 347.4V366M148.545 347.4H167.114M148.545 366V384.6M148.545 366H167.114M148.545 384.6V403.2M148.545 384.6H167.114M148.545 403.2V421.8M148.545 403.2H167.114M148.545 421.8V440.4M148.545 421.8H167.114M148.545 440.4V459M148.545 440.4H167.114M148.545 459V477.6M148.545 459H167.114M148.545 477.6V496.2M148.545 477.6H167.114M148.545 496.2V514.8M148.545 496.2H167.114M148.545 514.8V533.4M148.545 514.8C148.545 514.8 159.862 514.8 167.114 514.8M148.545 533.4V552M148.545 533.4H167.114M148.545 552V570.6M148.545 552H167.114M148.545 570.6V589.2M148.545 570.6H167.114M148.545 589.2V607.8M148.545 589.2H167.114M148.545 607.8V626.4M148.545 607.8H167.114M148.545 626.4V645M148.545 626.4H167.114M148.545 645H167.114M167.114 273V291.6M167.114 273H185.682M167.114 291.6V310.2M167.114 291.6H185.682M167.114 310.2V328.8M167.114 310.2H185.682M167.114 328.8V347.4M167.114 328.8H185.682M167.114 347.4V366M167.114 347.4H185.682M167.114 366V384.6M167.114 366H185.682M167.114 384.6V403.2M167.114 384.6H185.682M167.114 403.2V421.8M167.114 403.2H185.682M167.114 421.8V440.4M167.114 421.8H185.682M167.114 440.4V459M167.114 440.4H185.682M167.114 459V477.6M167.114 459H185.682M167.114 477.6V496.2M167.114 477.6H185.682M167.114 496.2C167.114 496.2 167.114 507.536 167.114 514.8M167.114 496.2H185.682M167.114 514.8C167.114 522.064 167.114 533.4 167.114 533.4M167.114 514.8C174.365 514.8 185.682 514.8 185.682 514.8M167.114 533.4V552M167.114 533.4H185.682M167.114 552V570.6M167.114 552H185.682M167.114 570.6V589.2M167.114 570.6H185.682M167.114 589.2V607.8M167.114 589.2H185.682M167.114 607.8V626.4M167.114 607.8H185.682M167.114 626.4V645M167.114 626.4H185.682M167.114 645H185.682M185.682 273V291.6M185.682 273H204.25M185.682 291.6V310.2M185.682 291.6H204.25M185.682 310.2V328.8M185.682 310.2H204.25M185.682 328.8V347.4M185.682 328.8H204.25M185.682 347.4V366M185.682 347.4H204.25M185.682 366V384.6M185.682 366H204.25M185.682 384.6V403.2M185.682 384.6H204.25M185.682 403.2V421.8M185.682 403.2H204.25M185.682 421.8V440.4M185.682 421.8H204.25M185.682 440.4V459M185.682 440.4H204.25M185.682 459V477.6M185.682 459H204.25M185.682 477.6V496.2M185.682 477.6H204.25M185.682 496.2V514.8M185.682 496.2H204.25M185.682 514.8V533.4M185.682 514.8H204.25M185.682 533.4V552M185.682 533.4H204.25M185.682 552V570.6M185.682 552H204.25M185.682 570.6V589.2M185.682 570.6H204.25M185.682 589.2V607.8M185.682 589.2H204.25M185.682 607.8V626.4M185.682 607.8H204.25M185.682 626.4V645M185.682 626.4H204.25M185.682 645H204.25M204.25 273V291.6M204.25 273H222.818M204.25 291.6V310.2M204.25 291.6H222.818M204.25 310.2V328.8M204.25 310.2H222.818M204.25 328.8V347.4M204.25 328.8H222.818M204.25 347.4V366M204.25 347.4H612.75M204.25 366V384.6M204.25 366H612.75M204.25 384.6V403.2M204.25 384.6H222.818M204.25 403.2V421.8M204.25 403.2H222.818M204.25 421.8V440.4M204.25 421.8H222.818M204.25 440.4V459M204.25 440.4H222.818M204.25 459V477.6M204.25 459H222.818M204.25 477.6V496.2M204.25 477.6H222.818M204.25 496.2V514.8M204.25 496.2H222.818M204.25 514.8V533.4M204.25 514.8H222.818M204.25 533.4V552M204.25 533.4H222.818M204.25 552V570.6M204.25 552H222.818M204.25 570.6V589.2M204.25 570.6H222.818M204.25 589.2V607.8M204.25 589.2H222.818M204.25 607.8V626.4M204.25 607.8H222.818M204.25 626.4V645M204.25 626.4H222.818M204.25 645H222.818M222.818 273V291.6M222.818 273H241.386M222.818 291.6V310.2M222.818 291.6H241.386M222.818 310.2V328.8M222.818 310.2H241.386M222.818 328.8H241.386M222.818 328.8V384.6M222.818 384.6V403.2M222.818 384.6H241.386M222.818 403.2V421.8M222.818 403.2H241.386M222.818 421.8V440.4M222.818 421.8H241.386M222.818 440.4V459M222.818 440.4H241.386M222.818 459V477.6M222.818 459H241.386M222.818 477.6V496.2M222.818 477.6H241.386M222.818 496.2V514.8M222.818 496.2H241.386M222.818 514.8V533.4M222.818 514.8H241.386M222.818 533.4V552M222.818 533.4H241.386M222.818 552V570.6M222.818 552H241.386M222.818 570.6V589.2M222.818 570.6H241.386M222.818 589.2V607.8M222.818 589.2H241.386M222.818 607.8V626.4M222.818 607.8H241.386M222.818 626.4V645M222.818 626.4H241.386M222.818 645H241.386M241.386 273V291.6M241.386 273H259.955M241.386 291.6V310.2M241.386 291.6H259.955M241.386 310.2V328.8M241.386 310.2H259.955M241.386 328.8H259.955M241.386 328.8V384.6M241.386 384.6V403.2M241.386 384.6H259.955M241.386 403.2V421.8M241.386 403.2H259.955M241.386 421.8V440.4M241.386 421.8H259.955M241.386 440.4V459M241.386 440.4H259.955M241.386 459V477.6M241.386 459H259.955M241.386 477.6V496.2M241.386 477.6H259.955M241.386 496.2V514.8M241.386 496.2H259.955M241.386 514.8V533.4M241.386 514.8H259.955M241.386 533.4V552M241.386 533.4H259.955M241.386 552V570.6M241.386 552H259.955M241.386 570.6V589.2M241.386 570.6H259.955M241.386 589.2V607.8M241.386 589.2H259.955M241.386 607.8V626.4M241.386 607.8H259.955M241.386 626.4V645M241.386 626.4H259.955M241.386 645H259.955M259.955 273V291.6M259.955 273H278.523M259.955 291.6V310.2M259.955 291.6H278.523M259.955 310.2V328.8M259.955 310.2H278.523M259.955 328.8H278.523M259.955 328.8V384.6M259.955 384.6V403.2M259.955 384.6H557.045M259.955 403.2V421.8M259.955 403.2H557.045M259.955 421.8V440.4M259.955 421.8H278.523M259.955 440.4V459M259.955 440.4H278.523M259.955 459V477.6M259.955 459H278.523M259.955 477.6V496.2M259.955 477.6H278.523M259.955 496.2V514.8M259.955 496.2H278.523M259.955 514.8V533.4M259.955 514.8H278.523M259.955 533.4V552M259.955 533.4H278.523M259.955 552V570.6M259.955 552H278.523M259.955 570.6V589.2M259.955 570.6H278.523M259.955 589.2V607.8M259.955 589.2H278.523M259.955 607.8V626.4M259.955 607.8H278.523M259.955 626.4V645M259.955 626.4H278.523M259.955 645H278.523M278.523 273V291.6M278.523 273H297.091M278.523 291.6V310.2M278.523 291.6H297.091M278.523 310.2V328.8M278.523 310.2H297.091M278.523 328.8H297.091M278.523 328.8V421.8M278.523 421.8V440.4M278.523 421.8H297.091M278.523 440.4V459M278.523 440.4H297.091M278.523 459V477.6M278.523 459H297.091M278.523 477.6V496.2M278.523 477.6H297.091M278.523 496.2V514.8M278.523 496.2H297.091M278.523 514.8V533.4M278.523 514.8H297.091M278.523 533.4V552M278.523 533.4H297.091M278.523 552V570.6M278.523 552H297.091M278.523 570.6V589.2M278.523 570.6H297.091M278.523 589.2V607.8M278.523 589.2H297.091M278.523 607.8V626.4M278.523 607.8H297.091M278.523 626.4V645M278.523 626.4H297.091M278.523 645H297.091M297.091 273V291.6M297.091 273H315.659M297.091 291.6V310.2M297.091 291.6H315.659M297.091 310.2V328.8M297.091 310.2H315.659M297.091 328.8H315.659M297.091 328.8V421.8M297.091 421.8V440.4M297.091 421.8H315.659M297.091 440.4V459M297.091 440.4H315.659M297.091 459V477.6M297.091 459H315.659M297.091 477.6V496.2M297.091 477.6H315.659M297.091 496.2V514.8M297.091 496.2H315.659M297.091 514.8V533.4M297.091 514.8H315.659M297.091 533.4V552M297.091 533.4H315.659M297.091 552V570.6M297.091 552H315.659M297.091 570.6V589.2M297.091 570.6H315.659M297.091 589.2V607.8M297.091 589.2H315.659M297.091 607.8V626.4M297.091 607.8H315.659M297.091 626.4V645M297.091 626.4H315.659M297.091 645H315.659M315.659 273V291.6M315.659 273H334.227M315.659 291.6V310.2M315.659 291.6H334.227M315.659 310.2V328.8M315.659 310.2H334.227M315.659 328.8H334.227M315.659 328.8V421.8M315.659 421.8V440.4M315.659 421.8H334.227M315.659 440.4V459M315.659 440.4H334.227M315.659 459V477.6M315.659 459H334.227M315.659 477.6V496.2M315.659 477.6H334.227M315.659 496.2V514.8M315.659 496.2H334.227M315.659 514.8V533.4M315.659 514.8H334.227M315.659 533.4V552M315.659 533.4H334.227M315.659 552V570.6M315.659 552H334.227M315.659 570.6V589.2M315.659 570.6H334.227M315.659 589.2V607.8M315.659 589.2H334.227M315.659 607.8V626.4M315.659 607.8H334.227M315.659 626.4V645M315.659 626.4H334.227M315.659 645H334.227M334.227 273V291.6M334.227 273H352.795M334.227 291.6V310.2M334.227 291.6H352.795M334.227 310.2V328.8M334.227 310.2H352.795M334.227 328.8H352.795M334.227 328.8V421.8M334.227 421.8V440.4M334.227 421.8H352.795M334.227 440.4V459M334.227 440.4H352.795M334.227 459V477.6M334.227 459H352.795M334.227 477.6V496.2M334.227 477.6H352.795M334.227 496.2V514.8M334.227 496.2H352.795M334.227 514.8V533.4M334.227 514.8H352.795M334.227 533.4V552M334.227 533.4H352.795M334.227 552V570.6M334.227 552H352.795M334.227 570.6V589.2M334.227 570.6H352.795M334.227 589.2V607.8M334.227 589.2H352.795M334.227 607.8V626.4M334.227 607.8H352.795M334.227 626.4V645M334.227 626.4H352.795M334.227 645H352.795M352.795 273V291.6M352.795 273H371.364M352.795 291.6V310.2M352.795 291.6H371.364M352.795 310.2V328.8M352.795 310.2H371.364M352.795 328.8H371.364M352.795 328.8V421.8M352.795 421.8V440.4M352.795 421.8H371.364M352.795 440.4V459M352.795 440.4H371.364M352.795 459V477.6M352.795 459H371.364M352.795 477.6V496.2M352.795 477.6H371.364M352.795 496.2V514.8M352.795 496.2H371.364M352.795 514.8V533.4M352.795 514.8H371.364M352.795 533.4V552M352.795 533.4H371.364M352.795 552V570.6M352.795 552H371.364M352.795 570.6V589.2M352.795 570.6H371.364M352.795 589.2V607.8M352.795 589.2H371.364M352.795 607.8V626.4M352.795 607.8H371.364M352.795 626.4V645M352.795 626.4H371.364M352.795 645H371.364M371.364 273V291.6M371.364 273H389.932M371.364 291.6V310.2M371.364 291.6H389.932M371.364 310.2V328.8M371.364 310.2H389.932M371.364 328.8H389.932M371.364 328.8V421.8M371.364 421.8V440.4M371.364 421.8H389.932M371.364 440.4V459M371.364 440.4H389.932M371.364 459V477.6M371.364 459H389.932M371.364 477.6V496.2M371.364 477.6H389.932M371.364 496.2V514.8M371.364 496.2H389.932M371.364 514.8V533.4M371.364 514.8H389.932M371.364 533.4V552M371.364 533.4H389.932M371.364 552V570.6M371.364 552H389.932M371.364 570.6V589.2M371.364 570.6H389.932M371.364 589.2V607.8M371.364 589.2H389.932M371.364 607.8V626.4M371.364 607.8H389.932M371.364 626.4V645M371.364 626.4H389.932M371.364 645H389.932M389.932 273V291.6M389.932 273H408.5M389.932 291.6H408.5M389.932 291.6V310.2M389.932 310.2V328.8M389.932 310.2H408.5M389.932 328.8H408.5M389.932 328.8V421.8M389.932 421.8V440.4M389.932 421.8H408.5M389.932 440.4V459M389.932 440.4H408.5M389.932 459V477.6M389.932 459H408.5M389.932 477.6V496.2M389.932 477.6H408.5M389.932 496.2V514.8M389.932 496.2H408.5M389.932 514.8V533.4M389.932 514.8H408.5M389.932 533.4V552M389.932 533.4H408.5M389.932 552V570.6M389.932 552H408.5M389.932 570.6V589.2M389.932 570.6H408.5M389.932 589.2V607.8M389.932 589.2H408.5M389.932 607.8V626.4M389.932 607.8H408.5M389.932 626.4V645M389.932 626.4H408.5M389.932 645H408.5M408.5 273V291.6M408.5 273H427.068M408.5 291.6H427.068M408.5 291.6V310.2M408.5 310.2V328.8M408.5 310.2H427.068M408.5 328.8H427.068M408.5 328.8V421.8M408.5 421.8V440.4M408.5 421.8H427.068M408.5 440.4V459M408.5 440.4H427.068M408.5 459V477.6M408.5 459H427.068M408.5 477.6V496.2M408.5 477.6H427.068M408.5 496.2V514.8M408.5 496.2H427.068M408.5 514.8V533.4M408.5 514.8H427.068M408.5 533.4V552M408.5 533.4H427.068M408.5 552V570.6M408.5 552H427.068M408.5 570.6V589.2M408.5 570.6H427.068M408.5 589.2V607.8M408.5 589.2H427.068M408.5 607.8V626.4M408.5 607.8H427.068M408.5 626.4V645M408.5 626.4H427.068M408.5 645H427.068M427.068 273V291.6M427.068 273H445.636M427.068 291.6H445.636M427.068 291.6V310.2M427.068 310.2V328.8M427.068 310.2H445.636M427.068 328.8H445.636M427.068 328.8V421.8M427.068 421.8V440.4M427.068 421.8H445.636M427.068 440.4V459M427.068 440.4H445.636M427.068 459V477.6M427.068 459H445.636M427.068 477.6V496.2M427.068 477.6H445.636M427.068 496.2V514.8M427.068 496.2H445.636M427.068 514.8V533.4M427.068 514.8H445.636M427.068 533.4V552M427.068 533.4H445.636M427.068 552V570.6M427.068 552H445.636M427.068 570.6V589.2M427.068 570.6H445.636M427.068 589.2V607.8M427.068 589.2H445.636M427.068 607.8V626.4M427.068 607.8H445.636M427.068 626.4V645M427.068 626.4H445.636M427.068 645H445.636M445.636 273V291.6M445.636 273H464.205M445.636 291.6H464.205M445.636 291.6V310.2M445.636 310.2V328.8M445.636 310.2H464.205M445.636 328.8H464.205M445.636 328.8V421.8M445.636 421.8V440.4M445.636 421.8H464.205M445.636 440.4V459M445.636 440.4H464.205M445.636 459V477.6M445.636 459H464.205M445.636 477.6V496.2M445.636 477.6H464.205M445.636 496.2V514.8M445.636 496.2H464.205M445.636 514.8V533.4M445.636 514.8H464.205M445.636 533.4V552M445.636 533.4H464.205M445.636 552V570.6M445.636 552H464.205M445.636 570.6V589.2M445.636 570.6H464.205M445.636 589.2V607.8M445.636 589.2H464.205M445.636 607.8V626.4M445.636 607.8H464.205M445.636 626.4V645M445.636 626.4H464.205M445.636 645H464.205M464.205 273V291.6M464.205 273H482.773M464.205 291.6V310.2M464.205 291.6H482.773M464.205 310.2V328.8M464.205 310.2H482.773M464.205 328.8H482.773M464.205 328.8V421.8M464.205 421.8V440.4M464.205 421.8H482.773M464.205 440.4V459M464.205 440.4H482.773M464.205 459V477.6M464.205 459H482.773M464.205 477.6V496.2M464.205 477.6H482.773M464.205 496.2V514.8M464.205 496.2H482.773M464.205 514.8V533.4M464.205 514.8H482.773M464.205 533.4V552M464.205 533.4H482.773M464.205 552V570.6M464.205 552H482.773M464.205 570.6V589.2M464.205 570.6H482.773M464.205 589.2V607.8M464.205 589.2H482.773M464.205 607.8V626.4M464.205 607.8H482.773M464.205 626.4V645M464.205 626.4H482.773M464.205 645H482.773M482.773 273V291.6M482.773 273H501.341M482.773 291.6V310.2M482.773 291.6H501.341M482.773 310.2V328.8M482.773 310.2H501.341M482.773 328.8H501.341M482.773 328.8V421.8M482.773 421.8V440.4M482.773 421.8H501.341M482.773 440.4V459M482.773 440.4H501.341M482.773 459V477.6M482.773 459H501.341M482.773 477.6V496.2M482.773 477.6H501.341M482.773 496.2V514.8M482.773 496.2H501.341M482.773 514.8V533.4M482.773 514.8H501.341M482.773 533.4V552M482.773 533.4H501.341M482.773 552V570.6M482.773 552H501.341M482.773 570.6V589.2M482.773 570.6H501.341M482.773 589.2V607.8M482.773 589.2H501.341M482.773 607.8V626.4M482.773 607.8H501.341M482.773 626.4V645M482.773 626.4H501.341M482.773 645H501.341M501.341 273V291.6M501.341 273H519.909M501.341 291.6V310.2M501.341 291.6H519.909M501.341 310.2V328.8M501.341 310.2H519.909M501.341 328.8H519.909M501.341 328.8V421.8M501.341 421.8V440.4M501.341 421.8H519.909M501.341 440.4V459M501.341 440.4H519.909M501.341 459V477.6M501.341 459H519.909M501.341 477.6V496.2M501.341 477.6H519.909M501.341 496.2V514.8M501.341 496.2H519.909M501.341 514.8V533.4M501.341 514.8H519.909M501.341 533.4V552M501.341 533.4H519.909M501.341 552V570.6M501.341 552H519.909M501.341 570.6V589.2M501.341 570.6H519.909M501.341 589.2V607.8M501.341 589.2H519.909M501.341 607.8V626.4M501.341 607.8H519.909M501.341 626.4V645M501.341 626.4H519.909M501.341 645H519.909M519.909 273V291.6M519.909 273H538.477M519.909 291.6V310.2M519.909 291.6H538.477M519.909 310.2V328.8M519.909 310.2H538.477M519.909 328.8H538.477M519.909 328.8V421.8M519.909 421.8V440.4M519.909 421.8H538.477M519.909 440.4V459M519.909 440.4H538.477M519.909 459V477.6M519.909 459H538.477M519.909 477.6V496.2M519.909 477.6H538.477M519.909 496.2V514.8M519.909 496.2H538.477M519.909 514.8V533.4M519.909 514.8H538.477M519.909 533.4V552M519.909 533.4H538.477M519.909 552V570.6M519.909 552H538.477M519.909 570.6V589.2M519.909 570.6H538.477M519.909 589.2V607.8M519.909 589.2H538.477M519.909 607.8V626.4M519.909 607.8H538.477M519.909 626.4V645M519.909 626.4H538.477M519.909 645H538.477M538.477 273V291.6M538.477 273H557.045M538.477 291.6V310.2M538.477 291.6H557.045M538.477 310.2V328.8M538.477 310.2H557.045M538.477 328.8H557.045M538.477 328.8V421.8M538.477 421.8V440.4M538.477 421.8H557.045M538.477 440.4V459M538.477 440.4H557.045M538.477 459V477.6M538.477 459H557.045M538.477 477.6V496.2M538.477 477.6H557.045M538.477 496.2V514.8M538.477 496.2H557.045M538.477 514.8V533.4M538.477 514.8H557.045M538.477 533.4V552M538.477 533.4H557.045M538.477 552V570.6M538.477 552H557.045M538.477 570.6V589.2M538.477 570.6H557.045M538.477 589.2V607.8M538.477 589.2H557.045M538.477 607.8V626.4M538.477 607.8H557.045M538.477 626.4V645M538.477 626.4H557.045M538.477 645H557.045M557.045 273V291.6M557.045 273H575.614M557.045 291.6V310.2M557.045 291.6H575.614M557.045 310.2V328.8M557.045 310.2H575.614M557.045 328.8H575.614M557.045 328.8V384.6M557.045 384.6V403.2M557.045 384.6H575.614M557.045 403.2V421.8M557.045 403.2H575.614M557.045 421.8V440.4M557.045 421.8H575.614M557.045 440.4V459M557.045 440.4H575.614M557.045 459V477.6M557.045 459H575.614M557.045 477.6V496.2M557.045 477.6H575.614M557.045 496.2V514.8M557.045 496.2H575.614M557.045 514.8V533.4M557.045 514.8H575.614M557.045 533.4V552M557.045 533.4H575.614M557.045 552V570.6M557.045 552H575.614M557.045 570.6V589.2M557.045 570.6H575.614M557.045 589.2V607.8M557.045 589.2H575.614M557.045 607.8V626.4M557.045 607.8H575.614M557.045 626.4V645M557.045 626.4H575.614M557.045 645H575.614M575.614 273V291.6M575.614 273H594.182M575.614 291.6V310.2M575.614 291.6H594.182M575.614 310.2V328.8M575.614 310.2H594.182M575.614 328.8H594.182M575.614 328.8V384.6M575.614 384.6V403.2M575.614 384.6H594.182M575.614 403.2V421.8M575.614 403.2H594.182M575.614 421.8V440.4M575.614 421.8H594.182M575.614 440.4V459M575.614 440.4H594.182M575.614 459V477.6M575.614 459H594.182M575.614 477.6V496.2M575.614 477.6H594.182M575.614 496.2V514.8M575.614 496.2H594.182M575.614 514.8V533.4M575.614 514.8H594.182M575.614 533.4V552M575.614 533.4H594.182M575.614 552V570.6M575.614 552H594.182M575.614 570.6V589.2M575.614 570.6H594.182M575.614 589.2V607.8M575.614 589.2H594.182M575.614 607.8V626.4M575.614 607.8H594.182M575.614 626.4V645M575.614 626.4H594.182M575.614 645H594.182M594.182 273V291.6M594.182 273H612.75M594.182 291.6V310.2M594.182 291.6H612.75M594.182 310.2V328.8M594.182 310.2H612.75M594.182 328.8H612.75M594.182 328.8V384.6M594.182 384.6V403.2M594.182 384.6H612.75M594.182 403.2V421.8M594.182 403.2H612.75M594.182 421.8V440.4M594.182 421.8H612.75M594.182 440.4V459M594.182 440.4H612.75M594.182 459V477.6M594.182 459H612.75M594.182 477.6V496.2M594.182 477.6H612.75M594.182 496.2V514.8M594.182 496.2H612.75M594.182 514.8V533.4M594.182 514.8H612.75M594.182 533.4V552M594.182 533.4H612.75M594.182 552V570.6M594.182 552H612.75M594.182 570.6V589.2M594.182 570.6H612.75M594.182 589.2V607.8M594.182 589.2H612.75M594.182 607.8V626.4M594.182 607.8H612.75M594.182 626.4V645M594.182 626.4H612.75M594.182 645H612.75M612.75 273V291.6M612.75 273H631.318M612.75 291.6V310.2M612.75 291.6H631.318M612.75 310.2V328.8M612.75 310.2H631.318M612.75 328.8V347.4M612.75 328.8H631.318M612.75 347.4V366M612.75 347.4H631.318M612.75 366V384.6M612.75 366H631.318M612.75 384.6V403.2M612.75 384.6H631.318M612.75 403.2V421.8M612.75 403.2H631.318M612.75 421.8V440.4M612.75 421.8H631.318M612.75 440.4V459M612.75 440.4H631.318M612.75 459V477.6M612.75 459H631.318M612.75 477.6V496.2M612.75 477.6H631.318M612.75 496.2V514.8M612.75 496.2H631.318M612.75 514.8V533.4M612.75 514.8H631.318M612.75 533.4V552M612.75 533.4H631.318M612.75 552V570.6M612.75 552H631.318M612.75 570.6V589.2M612.75 570.6H631.318M612.75 589.2V607.8M612.75 589.2H631.318M612.75 607.8V626.4M612.75 607.8H631.318M612.75 626.4V645M612.75 626.4H631.318M612.75 645H631.318M631.318 273V291.6M631.318 273H649.886M631.318 291.6V310.2M631.318 291.6H649.886M631.318 310.2V328.8M631.318 310.2H649.886M631.318 328.8V347.4M631.318 328.8H649.886M631.318 347.4V366M631.318 347.4H649.886M631.318 366V384.6M631.318 366H649.886M631.318 384.6V403.2M631.318 384.6H649.886M631.318 403.2V421.8M631.318 403.2H649.886M631.318 421.8V440.4M631.318 421.8H649.886M631.318 440.4V459M631.318 440.4H649.886M631.318 459V477.6M631.318 459H649.886M631.318 477.6V496.2M631.318 477.6H649.886M631.318 496.2V514.8M631.318 496.2H649.886M631.318 514.8V533.4M631.318 514.8H649.886M631.318 533.4V552M631.318 533.4H649.886M631.318 552V570.6M631.318 552H649.886M631.318 570.6V589.2M631.318 570.6H649.886M631.318 589.2V607.8M631.318 589.2H649.886M631.318 607.8V626.4M631.318 607.8H649.886M631.318 626.4V645M631.318 626.4H649.886M631.318 645H649.886M649.886 273V291.6M649.886 273H668.455M649.886 291.6V310.2M649.886 291.6H668.455M649.886 310.2V328.8M649.886 310.2H668.455M649.886 328.8V347.4M649.886 328.8H668.455M649.886 347.4V366M649.886 347.4H668.455M649.886 366V384.6M649.886 366H668.455M649.886 384.6V403.2M649.886 384.6H668.455M649.886 403.2V421.8M649.886 403.2H668.455M649.886 421.8V440.4M649.886 421.8H668.455M649.886 440.4V459M649.886 440.4H668.455M649.886 459V477.6M649.886 459H668.455M649.886 477.6V496.2M649.886 477.6H668.455M649.886 496.2V514.8M649.886 496.2H668.455M649.886 514.8V533.4M649.886 514.8H668.455M649.886 533.4V552M649.886 533.4H668.455M649.886 552V570.6M649.886 552H668.455M649.886 570.6V589.2M649.886 570.6H668.455M649.886 589.2V607.8M649.886 589.2H668.455M649.886 607.8V626.4M649.886 607.8H668.455M649.886 626.4V645M649.886 626.4H668.455M649.886 645H668.455M668.455 273V291.6M668.455 273H687.023M668.455 291.6V310.2M668.455 291.6H687.023M668.455 310.2V328.8M668.455 310.2H687.023M668.455 328.8V347.4M668.455 328.8H687.023M668.455 347.4V366M668.455 347.4H687.023M668.455 366V384.6M668.455 366H687.023M668.455 384.6V403.2M668.455 384.6H687.023M668.455 403.2V421.8M668.455 403.2H687.023M668.455 421.8V440.4M668.455 421.8H687.023M668.455 440.4V459M668.455 440.4H687.023M668.455 459V477.6M668.455 459H687.023M668.455 477.6V496.2M668.455 477.6H687.023M668.455 496.2V514.8M668.455 496.2H687.023M668.455 514.8V533.4M668.455 514.8H687.023M668.455 533.4V552M668.455 533.4H687.023M668.455 552V570.6M668.455 552H687.023M668.455 570.6V589.2M668.455 570.6H687.023M668.455 589.2V607.8M668.455 589.2H687.023M668.455 607.8V626.4M668.455 607.8H687.023M668.455 626.4V645M668.455 626.4H687.023M668.455 645H687.023M687.023 273V291.6M687.023 273H705.591M687.023 291.6V310.2M687.023 291.6H705.591M687.023 310.2V328.8M687.023 310.2H705.591M687.023 328.8V347.4M687.023 328.8H705.591M687.023 347.4V366M687.023 347.4H705.591M687.023 366V384.6M687.023 366H705.591M687.023 384.6V403.2M687.023 384.6H705.591M687.023 403.2H705.591M687.023 403.2V421.8M687.023 421.8V440.4M687.023 421.8H705.591M687.023 440.4V459M687.023 440.4H705.591M687.023 459V477.6M687.023 459H705.591M687.023 477.6V496.2M687.023 477.6H705.591M687.023 496.2V514.8M687.023 496.2H705.591M687.023 514.8V533.4M687.023 514.8H705.591M687.023 533.4V552M687.023 533.4H705.591M687.023 552V570.6M687.023 552H705.591M687.023 570.6V589.2M687.023 570.6H705.591M687.023 589.2V607.8M687.023 589.2H705.591M687.023 607.8V626.4M687.023 607.8H705.591M687.023 626.4V645M687.023 626.4H705.591M687.023 645H705.591M705.591 273V291.6M705.591 273H724.159M705.591 291.6V310.2M705.591 291.6H724.159M705.591 310.2V328.8M705.591 310.2H724.159M705.591 328.8V347.4M705.591 328.8H724.159M705.591 347.4V366M705.591 347.4H724.159M705.591 366V384.6M705.591 366H724.159M705.591 384.6V403.2M705.591 384.6H724.159M705.591 403.2V421.8M705.591 403.2H724.159M705.591 421.8V440.4M705.591 421.8H724.159M705.591 440.4V459M705.591 440.4H724.159M705.591 459V477.6M705.591 459H724.159M705.591 477.6V496.2M705.591 477.6H724.159M705.591 496.2V514.8M705.591 496.2H724.159M705.591 514.8V533.4M705.591 514.8H724.159M705.591 533.4V552M705.591 533.4H724.159M705.591 552V570.6M705.591 552H724.159M705.591 570.6V589.2M705.591 570.6H724.159M705.591 589.2V607.8M705.591 589.2H724.159M705.591 607.8V626.4M705.591 607.8H724.159M705.591 626.4V645M705.591 626.4H724.159M705.591 645H724.159M724.159 273V291.6M724.159 273H742.727M724.159 291.6V310.2M724.159 291.6H742.727M724.159 310.2V328.8M724.159 310.2H742.727M724.159 328.8V347.4M724.159 328.8H742.727M724.159 347.4V366M724.159 347.4H742.727M724.159 366V384.6M724.159 366H742.727M724.159 384.6V403.2M724.159 384.6H742.727M724.159 403.2V421.8M724.159 403.2H742.727M724.159 421.8V440.4M724.159 421.8H742.727M724.159 440.4V459M724.159 440.4H742.727M724.159 459V477.6M724.159 459H742.727M724.159 477.6V496.2M724.159 477.6H742.727M724.159 496.2V514.8M724.159 496.2H742.727M724.159 514.8V533.4M724.159 514.8H742.727M724.159 533.4V552M724.159 533.4H742.727M724.159 552V570.6M724.159 552H742.727M724.159 570.6V589.2M724.159 570.6H742.727M724.159 589.2V607.8M724.159 589.2H742.727M724.159 607.8V626.4M724.159 607.8H742.727M724.159 626.4V645M724.159 626.4H742.727M724.159 645H742.727M742.727 273V291.6M742.727 273H761.295M742.727 291.6V310.2M742.727 291.6H761.295M742.727 310.2V328.8M742.727 310.2H761.295M742.727 328.8V347.4M742.727 328.8H761.295M742.727 347.4V366M742.727 347.4H761.295M742.727 366V384.6M742.727 366H761.295M742.727 384.6V403.2M742.727 384.6H761.295M742.727 403.2V421.8M742.727 403.2H761.295M742.727 421.8V440.4M742.727 421.8H761.295M742.727 440.4V459M742.727 440.4H761.295M742.727 459V477.6M742.727 459H761.295M742.727 477.6V496.2M742.727 477.6H761.295M742.727 496.2V514.8M742.727 496.2H761.295M742.727 514.8V533.4M742.727 514.8H761.295M742.727 533.4V552M742.727 533.4H761.295M742.727 552V570.6M742.727 552H761.295M742.727 570.6V589.2M742.727 570.6H761.295M742.727 589.2V607.8M742.727 589.2H761.295M742.727 607.8V626.4M742.727 607.8H761.295M742.727 626.4V645M742.727 626.4H761.295M742.727 645H761.295M761.295 273V291.6M761.295 273H779.864M761.295 291.6V310.2M761.295 291.6H779.864M761.295 310.2V328.8M761.295 310.2H779.864M761.295 328.8V347.4M761.295 328.8H779.864M761.295 347.4V366M761.295 347.4H779.864M761.295 366V384.6M761.295 366H779.864M761.295 384.6V403.2M761.295 384.6H779.864M761.295 403.2V421.8M761.295 403.2H779.864M761.295 421.8V440.4M761.295 421.8H779.864M761.295 440.4V459M761.295 440.4H779.864M761.295 459V477.6M761.295 459H779.864M761.295 477.6V496.2M761.295 477.6H779.864M761.295 496.2V514.8M761.295 496.2H779.864M761.295 514.8V533.4M761.295 514.8H779.864M761.295 533.4V552M761.295 533.4H779.864M761.295 552V570.6M761.295 552H779.864M761.295 570.6V589.2M761.295 570.6H779.864M761.295 589.2V607.8M761.295 589.2H779.864M761.295 607.8V626.4M761.295 607.8H779.864M761.295 626.4V645M761.295 626.4H779.864M761.295 645H779.864M779.864 273V291.6M779.864 273H798.432M779.864 291.6V310.2M779.864 291.6H798.432M779.864 310.2V328.8M779.864 310.2H798.432M779.864 328.8V347.4M779.864 328.8H798.432M779.864 347.4V366M779.864 347.4H798.432M779.864 366V384.6M779.864 366H798.432M779.864 384.6V403.2M779.864 384.6H798.432M779.864 403.2V421.8M779.864 403.2H798.432M779.864 421.8V440.4M779.864 421.8H798.432M779.864 440.4V459M779.864 440.4H798.432M779.864 459V477.6M779.864 459H798.432M779.864 477.6V496.2M779.864 477.6H798.432M779.864 496.2V514.8M779.864 496.2H798.432M779.864 514.8V533.4M779.864 514.8H798.432M779.864 533.4V552M779.864 533.4H798.432M779.864 552V570.6M779.864 552H798.432M779.864 570.6V589.2M779.864 570.6H798.432M779.864 589.2V607.8M779.864 589.2H798.432M779.864 607.8V626.4M779.864 607.8H798.432M779.864 626.4V645M779.864 626.4H798.432M779.864 645H798.432M798.432 273V291.6M798.432 273H817V291.6M798.432 291.6V310.2M798.432 291.6H817M798.432 310.2V328.8M798.432 310.2H817M798.432 328.8V347.4M798.432 328.8H817M798.432 347.4V366M798.432 347.4H817M798.432 366V384.6M798.432 366H817M798.432 384.6V403.2M798.432 384.6H817M798.432 403.2V421.8M798.432 403.2H817M798.432 421.8V440.4M798.432 421.8H817M798.432 440.4V459M798.432 440.4H817M798.432 459V477.6M798.432 459H817M798.432 477.6V496.2M798.432 477.6H817M798.432 496.2V514.8M798.432 496.2H817M798.432 514.8V533.4M798.432 514.8H817M798.432 533.4V552M798.432 533.4H817M798.432 552V570.6M798.432 552H817M798.432 570.6V589.2M798.432 570.6H817M798.432 589.2V607.8M798.432 589.2H817M798.432 607.8V626.4M798.432 607.8H817M798.432 626.4V645M798.432 626.4H817M798.432 645H817V626.4M817 291.6V310.2M817 310.2V328.8M817 328.8V347.4M817 347.4V366M817 366V384.6M817 384.6V403.2M817 403.2V421.8M817 421.8V440.4M817 440.4V459M817 459V477.6M817 477.6V496.2M817 496.2V514.8M817 514.8V533.4M817 533.4V552M817 552V570.6M817 570.6V589.2M817 589.2V607.8M817 607.8V626.4" stroke="black"/>
</mask>
<g mask="url(#mask0_2007_420)">
<g filter="url(#filter0_f_2007_420)">
<ellipse cx="420.5" cy="263" rx="185.5" ry="174" fill="#D9D9D9"/>
</g>
</g>
</g>
<defs>
<filter id="filter0_f_2007_420" x="-9" y="-155" width="859" height="836" filterUnits="userSpaceOnUse" color-interpolation-filters="sRGB">
<feFlood flood-opacity="0" result="BackgroundImageFix"/>
<feBlend mode="normal" in="SourceGraphic" in2="BackgroundImageFix" result="shape"/>
<feGaussianBlur stdDeviation="122" result="effect1_foregroundBlur_2007_420"/>
</filter>
<clipPath id="clip0_2007_420">
<rect width="817" height="549" fill="white"/>
</clipPath>
</defs>
</svg>
