<svg width="216" height="224" viewBox="0 0 216 224" fill="none" xmlns="http://www.w3.org/2000/svg">
<rect y="8" width="216" height="216" rx="34" fill="#1A1A1A"/>
<path d="M98.9629 132.51C90.1152 145.342 80.2715 151.758 69.4316 151.758C61.6387 151.758 55.3105 148.564 50.4473 142.178C45.584 135.791 43.1523 127.588 43.1523 117.568C43.1523 103.975 46.6973 90.4102 53.7871 76.875C60.9355 63.2812 70.1348 52.2949 81.3848 43.916C92.6348 35.5371 103.65 31.3477 114.432 31.3477C121.404 31.3477 126.941 33.6914 131.043 38.3789C135.203 43.0078 137.283 49.248 137.283 57.0996C137.283 75.3809 128.201 89.9121 110.037 100.693V136.816C110.037 140.273 110.242 142.588 110.652 143.76C111.121 144.932 112.322 145.518 114.256 145.518C118.592 145.518 123.689 141.68 129.549 134.004L132.361 136.289C128.318 142.09 124.656 146.162 121.375 148.506C118.094 150.85 114.637 152.021 111.004 152.021C107.02 152.021 104.002 150.938 101.951 148.77C99.9004 146.602 98.9043 141.182 98.9629 132.51ZM110.037 95.8594C116.541 92.5781 121.492 88.0371 124.891 82.2363C128.348 76.377 130.076 69.9316 130.076 62.9004C130.076 55.459 127.908 49.5703 123.572 45.2344C119.236 40.8984 113.465 38.7305 106.258 38.7305C93.1328 38.7305 81.1504 45.6738 70.3105 59.5605C59.5293 73.4473 54.1387 90.0293 54.1387 109.307C54.1387 119.854 56.043 128.35 59.8516 134.795C63.6602 141.24 68.582 144.463 74.6172 144.463C76.4336 144.463 78.2207 144.199 79.9785 143.672C81.7949 143.086 83.5527 142.266 85.252 141.211C87.0098 140.098 88.709 138.721 90.3496 137.08C91.9902 135.439 93.8359 133.066 95.8867 129.961C97.9375 126.797 98.9629 124.775 98.9629 123.896V104.824C96.9707 105.059 95.2715 105.176 93.8652 105.176C87.7715 105.176 82.9082 103.389 79.2754 99.8145C75.7012 96.1816 73.9141 91.377 73.9141 85.4004C73.9141 79.5996 75.6719 73.9453 79.1875 68.4375C82.7617 62.8711 87.6543 58.623 93.8652 55.6934L95.1836 57.627C86.2773 65.0684 81.8242 73.2422 81.8242 82.1484C81.8242 87.4219 83.2305 91.6406 86.043 94.8047C88.9141 97.9102 92.7812 99.4629 97.6445 99.4629H98.9629V63.9551L110.037 57.9785V95.8594ZM151.609 91.1133L145.457 99.4629L139.393 91.1133L145.457 83.0273L151.609 91.1133ZM169.1 134.531C162.068 145.898 155.535 151.523 149.5 151.406V178.652C149.5 183.047 149.178 187.236 148.533 191.221C147.889 195.264 145.779 198.545 142.205 201.064C138.689 203.643 135.232 204.932 131.834 204.932C125.154 204.932 120.877 201.738 119.002 195.352C121.229 193.301 123.895 191.455 127 189.814L127.703 191.045C127.352 192.1 127.176 193.008 127.176 193.77C127.176 195.938 127.762 197.695 128.934 199.043C130.164 200.449 131.834 201.152 133.943 201.152C136.99 201.152 138.865 199.541 139.568 196.318C140.271 193.096 140.623 186.357 140.623 176.104V121.699C138.807 126.094 135.818 131.279 131.658 137.256L129.109 134.883C134.207 126.797 137.986 119.414 140.447 112.734L149.5 108.252V146.396C152.195 146.396 154.715 145.4 157.059 143.408C159.461 141.416 162.566 137.666 166.375 132.158L169.1 134.531Z" fill="#E9E9E9"/>
</svg>
